<?xml version="1.0" encoding="UTF-8"?>
<svg version="1.1" xmlns="http://www.w3.org/2000/svg" width="460" height="303">
<path d="M0 0 C151.8 0 303.6 0 460 0 C460 99.99 460 199.98 460 303 C308.2 303 156.4 303 0 303 C0 203.01 0 103.02 0 0 Z " fill="#002516" transform="translate(0,0)"/>
<path d="M0 0 C151.8 0 303.6 0 460 0 C460 99.99 460 199.98 460 303 C308.2 303 156.4 303 0 303 C0 203.01 0 103.02 0 0 Z M89 23 C88.08734375 23.28875 87.1746875 23.5775 86.234375 23.875 C83.7289491 24.78018613 81.39314729 25.82911966 79 27 C77.82953125 27.56589844 76.6590625 28.13179687 75.453125 28.71484375 C56.24331482 38.31000014 43.56524852 52.65348812 33 71 C32.47277344 71.90878906 31.94554687 72.81757812 31.40234375 73.75390625 C20.56451837 93.87182676 19.24512013 124.25216343 25.60546875 146.1875 C29.69898701 157.80465415 34.76026617 168.98930609 42 179 C42.90492187 180.25490234 42.90492187 180.25490234 43.828125 181.53515625 C55.06388632 196.31063912 71.50908243 208.54274616 89 215 C89.66 215 90.32 215 91 215 C90.99333817 215.77816574 90.98667633 216.55633148 90.97981262 217.358078 C90.91964371 224.69985755 90.87399639 232.04151715 90.84456348 239.38347912 C90.82892289 243.15785956 90.80771439 246.93203586 90.77368164 250.70629883 C90.74103024 254.35026868 90.7231349 257.99404247 90.71536827 261.63814735 C90.70983508 263.02679848 90.69902997 264.41543916 90.68280983 265.80400658 C90.66096144 267.75228745 90.65977396 269.70076658 90.65942383 271.64916992 C90.65276199 272.7572551 90.64610016 273.86534027 90.63923645 275.00700378 C91.04773827 278.39605015 92.00307947 280.25911254 94 283 C97.25271144 285.35541173 100.06571732 285.49121149 104 285 C106.84072538 283.29981997 109.26220334 281.17444141 111.75 279 C113.17153526 277.79777525 114.59340959 276.59595131 116.015625 275.39453125 C117.04139648 274.51595459 117.04139648 274.51595459 118.08789062 273.61962891 C120.50526853 271.57201846 122.99598999 269.62771894 125.5 267.6875 C129.42539276 264.57105642 132.94621623 261.18951538 136.40625 257.56640625 C142.40328371 251.67226282 158.83046457 254.23266973 166.82867432 254.27624512 C180.2306404 254.51042126 190.43212202 257.71485068 202.43505859 263.76074219 C206.2460602 265.60203708 210.16242034 266.95882705 214.1875 268.25 C214.89801514 268.48009766 215.60853027 268.71019531 216.34057617 268.94726562 C218.55509086 269.65030206 220.77534055 270.32977421 223 271 C223.8353125 271.25233398 224.670625 271.50466797 225.53125 271.76464844 C244.68357549 277.46105701 264.11242345 280.55063501 283.87109375 283.28125 C287.30482487 283.75694101 290.73353571 284.25677389 294.16015625 284.78125 C295.01456299 284.91200928 295.86896973 285.04276855 296.74926758 285.17749023 C298.32107671 285.41948408 299.89257876 285.66348982 301.46362305 285.91040039 C303.97306978 286.29531171 306.48529218 286.65099736 309 287 C310.21461914 287.17354004 311.42923828 287.34708008 312.68066406 287.52587891 C323.02473994 288.92436257 333.22615732 289.31207322 343.65820312 289.26074219 C346.26195226 289.24995046 348.86502056 289.26075066 351.46875 289.2734375 C369.18545529 289.28918811 385.94197949 286.9046366 402 279 C402.94488281 278.56945312 403.88976562 278.13890625 404.86328125 277.6953125 C413.68952078 273.54574627 422.22600725 268.80061922 427 260 C424.8959118 259.97235505 422.79171032 259.95332113 420.6875 259.9375 C419.51574219 259.92589844 418.34398437 259.91429687 417.13671875 259.90234375 C413.81643412 259.92814302 410.54675449 260.19464883 407.24145508 260.50610352 C406.257845 260.59803482 405.27423492 260.68996613 404.26081848 260.78468323 C403.51474838 260.85573776 402.76867828 260.9267923 402 261 C402.00553076 260.04970193 402.01106152 259.09940386 402.01675987 258.12030888 C402.15002998 234.98433824 402.24858888 211.84841746 402.31087303 188.7121439 C402.34179478 177.52353322 402.38394341 166.3351763 402.45263672 155.14672852 C402.51248991 145.3934593 402.55116137 135.64037389 402.56453097 125.88692611 C402.57234466 120.7237233 402.59067383 115.56104626 402.63438034 110.39801216 C402.67521474 105.53469219 402.68764715 100.67211275 402.67864609 95.80863762 C402.68029189 94.02727606 402.69216239 92.24588882 402.71523285 90.4646759 C403.10030053 78.25932685 403.10030053 78.25932685 397.7756443 67.63183308 C389.9353473 60.42652965 380.7686225 61.48381789 370.6953125 61.61279297 C368.93374326 61.620437 367.17216484 61.62616969 365.4105835 61.63014221 C361.62804746 61.64187692 357.84583201 61.66535604 354.06341553 61.69753647 C348.07886551 61.74664188 342.09459201 61.75876338 336.10986328 61.76394653 C319.09574962 61.78374727 302.0820779 61.843144 285.06835938 61.96191406 C275.66321631 62.02725219 266.25864978 62.05679699 256.85327721 62.04723656 C250.90683519 62.04321791 244.96284978 62.08324185 239.01687622 62.15592647 C235.31454932 62.19061088 231.61317802 62.18335219 227.91077423 62.16430473 C226.19828152 62.1638247 224.48568313 62.18040738 222.77355194 62.21559715 C209.83594706 62.46774158 209.83594706 62.46774158 205.25253296 58.80354691 C203.22656376 56.29204442 201.60416099 53.79308364 200 51 C192.98376625 42.42566427 184.49933184 36.45817962 175 31 C173.92234375 30.360625 172.8446875 29.72125 171.734375 29.0625 C147.87917689 15.94779393 114.73782695 14.61482561 89 23 Z " fill="#005128" transform="translate(0,0)"/>
<path d="M0 0 C2.10827055 3.16240582 2.33817465 4.50657469 2.625 8.1875 C2.69976562 9.08855469 2.77453125 9.98960938 2.8515625 10.91796875 C2.90054688 11.60503906 2.94953125 12.29210937 3 13 C3.33 13 3.66 13 4 13 C3.9071875 14.794375 3.9071875 14.794375 3.8125 16.625 C4.00524722 18.89967952 4.00524722 18.89967952 5 21 C7.42329432 22.77302809 9.94942945 23.93709719 12.66015625 25.2265625 C16.65782747 27.34930254 20.08003615 29.89052672 23.625 32.6875 C24.24076904 33.16356689 24.85653809 33.63963379 25.4909668 34.13012695 C29.87271454 37.61814362 29.87271454 37.61814362 31 41 C31.81404297 40.65775391 31.81404297 40.65775391 32.64453125 40.30859375 C33.35996094 40.02113281 34.07539063 39.73367187 34.8125 39.4375 C35.52019531 39.14746094 36.22789062 38.85742188 36.95703125 38.55859375 C39 38 39 38 42 39 C42 39.66 42 40.32 42 41 C41.071875 41.391875 40.14375 41.78375 39.1875 42.1875 C32.8431385 45.79507811 31.85168676 52.31675541 30 58.9375 C27.37072626 68.29744064 27.37072626 68.29744064 25.25 72.31640625 C23.81035487 74.89447646 23.81035487 74.89447646 24.046875 77.56640625 C25.26430233 80.67483751 26.94826565 82.52525192 29.25 84.9375 C31.93290576 87.75983236 34.37562779 90.47106939 36.5625 93.6875 C37.366875 94.450625 38.17125 95.21375 39 96 C47.53210318 95.4696013 58.30425297 93.55888196 65.2265625 88.3125 C69.4621672 83.09944806 71.19536699 76.36929297 73 70 C74.485 70.495 74.485 70.495 76 71 C77.18197869 73.54667873 77.07557724 74.76225451 76.22265625 77.4453125 C75.83980469 78.32960938 75.45695312 79.21390625 75.0625 80.125 C70.50031963 92.21637314 74.19558197 102.57835059 79.31640625 113.9140625 C85.65921403 126.16598179 94.46526144 136.83144005 103.53125 147.13671875 C106 150 106 150 108 153 C104.80345451 151.51903168 102.08516726 149.71175354 99.25 147.625 C98.28835937 146.91859375 97.32671875 146.2121875 96.3359375 145.484375 C93.20049777 143.15715648 90.08423254 140.80476966 86.96801758 138.4519043 C84.2458728 136.4010081 81.5146321 134.36253211 78.77978516 132.32861328 C77.27686131 131.20667754 75.78376745 130.07159161 74.29296875 128.93359375 C69.43063111 125.39967059 65.11950781 123.4910274 59 124 C55.90644342 124.90180336 55.90644342 124.90180336 54 127 C53.60773825 129.98416851 53.7408836 131.54897551 55.25 134.17578125 C57.13680434 136.47953565 59.03899253 138.75884861 61 141 C61.54398437 141.639375 62.08796875 142.27875 62.6484375 142.9375 C81.46202727 163.36854772 111.01844587 176.66085487 136 188 C131.18595232 189.60468256 126.88006778 189.12616949 122 188 C120.91332031 187.8453125 120.91332031 187.8453125 119.8046875 187.6875 C116.1539113 186.79260221 113.00191018 185.15903507 109.6875 183.4375 C108.24378826 182.6973338 106.79976976 181.95776568 105.35546875 181.21875 C104.62505371 180.84363281 103.89463867 180.46851563 103.14208984 180.08203125 C101.18762828 179.09477644 99.22091303 178.14779665 97.23828125 177.21875 C81.37381761 169.71641551 66.49836059 160.10672504 52.3125 149.8125 C46.07739243 145.30355604 39.6522023 141.2429662 33 137.375 C32.13930908 136.86557861 31.27861816 136.35615723 30.3918457 135.83129883 C24.95968964 132.73872691 20.1661117 131.05669253 14 130 C14 129.34 14 128.68 14 128 C12.0399719 126.36323743 12.0399719 126.36323743 10 125 C10.85271484 124.814375 10.85271484 124.814375 11.72265625 124.625 C21.58239271 121.99134752 25.7239701 114.82988833 30.8359375 106.4921875 C32.29248478 103.37380775 33.0685399 101.48268385 33 98 C31.22115956 95.11389861 28.96308147 92.75444252 26.625 90.3125 C25.40516148 88.99951482 24.18885125 87.68324038 22.9765625 86.36328125 C22.43080566 85.78876221 21.88504883 85.21424316 21.32275391 84.62231445 C20 83 20 83 19 80 C18.14656006 80.24339111 18.14656006 80.24339111 17.27587891 80.49169922 C14.96624945 81.00753794 12.94885817 81.12927444 10.5859375 81.1328125 C9.74643555 81.13474609 8.90693359 81.13667969 8.04199219 81.13867188 C7.16188477 81.13416016 6.28177734 81.12964844 5.375 81.125 C4.47942383 81.12306641 3.58384766 81.12113281 2.66113281 81.11914062 C-3.28575941 81.08020135 -9.09947071 80.78673724 -15 80 C-15 79.34 -15 78.68 -15 78 C-15.763125 78.804375 -16.52625 79.60875 -17.3125 80.4375 C-20 83 -20 83 -23 84 C-23.33 83.01 -23.66 82.02 -24 81 C-23.34 80.01 -22.68 79.02 -22 78 C-22.41952254 71.99279433 -24.86974141 66.33508021 -26.91601562 60.72070312 C-28.58548169 55.9386732 -29.19117058 52.12460498 -29 47 C-29.25523438 46.11570313 -29.51046875 45.23140625 -29.7734375 44.3203125 C-29.88558594 43.17175781 -29.88558594 43.17175781 -30 42 C-28.1640625 39.8671875 -28.1640625 39.8671875 -25.625 37.875 C-21.93464667 35.07791912 -21.93464667 35.07791912 -20 31 C-17.6084994 29.31136726 -15.26270509 27.79598973 -12.75 26.3125 C-12.08097656 25.89677734 -11.41195312 25.48105469 -10.72265625 25.05273438 C-10.06652344 24.66021484 -9.41039063 24.26769531 -8.734375 23.86328125 C-8.13850586 23.50532471 -7.54263672 23.14736816 -6.92871094 22.77856445 C-5 22 -5 22 0 22 C0 14.74 0 7.48 0 0 Z " fill="#022517" transform="translate(119,65)"/>
<path d="M0 0 C0.33 0 0.66 0 1 0 C0.98889694 0.63289948 0.97779388 1.26579895 0.96635437 1.9178772 C0.85479978 8.57010629 0.77993849 15.22206511 0.7253418 21.875 C0.70036576 24.35004489 0.66637293 26.8250173 0.62280273 29.29980469 C0.03374989 48.76141563 0.03374989 48.76141563 6 67 C6.39195557 67.77182617 6.78391113 68.54365234 7.18774414 69.33886719 C8.27298617 71.31678198 9.43734872 73.18536697 10.6875 75.0625 C11.11538818 75.72459473 11.54327637 76.38668945 11.98413086 77.06884766 C18.78247753 87.43095398 26.49025586 96.98968267 35 106 C35.74507813 106.80953125 36.49015625 107.6190625 37.2578125 108.453125 C49.8077521 121.62434874 65.17807784 130.31977482 81 139 C80.2994751 138.57581787 79.5989502 138.15163574 78.87719727 137.71459961 C70.7464154 132.75235543 63.35153616 127.03836774 56 121 C55.08863281 120.2575 54.17726563 119.515 53.23828125 118.75 C36.5223617 104.47455222 22.18979813 80.70801206 18 59 C18.3984375 56.61328125 18.3984375 56.61328125 19 55 C19.29390625 55.59683594 19.5878125 56.19367188 19.890625 56.80859375 C28.62138496 73.69308068 40.76423727 89.52885533 54.63671875 102.51171875 C56 104 56 104 56 106 C56.55171875 106.22945313 57.1034375 106.45890625 57.671875 106.6953125 C60.65656179 108.36793899 62.78556025 110.50005108 65.25 112.875 C95.65858529 141.25322022 136.05028814 162.12551365 178 164 C178 164.33 178 164.66 178 165 C172.87297211 165.83489628 167.86102877 166.18484876 162.6640625 166.23828125 C161.4822364 166.25304001 161.4822364 166.25304001 160.27653503 166.26809692 C142.14293036 166.44757921 124.77254037 165.99760193 107 162 C105.91315918 161.76394043 104.82631836 161.52788086 103.70654297 161.28466797 C57.61888391 151.10640238 -5.1322687 130.0229481 -34.5625 89.75 C-36.13885623 86.73436199 -36.87211275 85.31402845 -36 82 C-33.49503137 79.55926133 -31.5537937 78.10051647 -27.97338867 77.86889648 C-21.61649348 78.4219485 -17.75526345 80.5998957 -12.75 84.4375 C-12.01910156 84.9752002 -11.28820312 85.51290039 -10.53515625 86.06689453 C-8.34022907 87.69058521 -6.16709595 89.33939973 -4 91 C-3.37416016 91.47808105 -2.74832031 91.95616211 -2.10351562 92.44873047 C0.64280449 94.55227874 3.37755795 96.66944771 6.10546875 98.796875 C9.94976796 101.72290031 13.92408417 104.40910777 18 107 C17.39414063 106.35675781 16.78828125 105.71351563 16.1640625 105.05078125 C1.1108118 88.81642935 -17.81654396 67.28424354 -17.390625 43.9296875 C-16.7308293 38.98121972 -14.97450054 34.41276223 -13.28515625 29.7421875 C-12.13985979 26.40725131 -11.33668667 23.19653294 -10.625 19.75 C-9.11062561 13.28108282 -5.81470666 8.35897345 -2 3 C-1.34 2.01 -0.68 1.02 0 0 Z " fill="#E8D4A4" transform="translate(208,110)"/>
<path d="M0 0 C0.81057861 -0.01912445 1.62115723 -0.0382489 2.45629883 -0.05795288 C5.0791938 -0.10015168 7.69724576 -0.08753736 10.3203125 -0.0625 C11.21558655 -0.06163391 12.1108606 -0.06076782 13.03326416 -0.05987549 C28.381805 0.02148266 40.0802643 2.74711419 53.88037109 9.69824219 C57.6913727 11.53953708 61.60773284 12.89632705 65.6328125 14.1875 C66.34332764 14.41759766 67.05384277 14.64769531 67.78588867 14.88476562 C70.00040336 15.58780206 72.22065305 16.26727421 74.4453125 16.9375 C75.280625 17.18983398 76.1159375 17.44216797 76.9765625 17.70214844 C92.91735149 22.44336104 108.96142279 25.49311297 125.421875 27.77734375 C126.8613147 27.97710815 126.8613147 27.97710815 128.32983398 28.1809082 C130.15112199 28.42885465 131.97353267 28.66873597 133.79711914 28.89916992 C134.61301514 29.00720947 135.42891113 29.11524902 136.26953125 29.2265625 C137.33820435 29.36118896 137.33820435 29.36118896 138.4284668 29.49853516 C140.4453125 29.9375 140.4453125 29.9375 144.4453125 31.9375 C82.0753125 31.9375 19.7053125 31.9375 -44.5546875 31.9375 C-38.93551127 26.31832377 -38.93551127 26.31832377 -35.84765625 23.8515625 C-35.18241943 23.31668213 -34.51718262 22.78180176 -33.83178711 22.23071289 C-32.7974353 21.40494751 -32.7974353 21.40494751 -31.7421875 20.5625 C-25.28978403 15.37411359 -25.28978403 15.37411359 -18.9921875 10 C-18.44966339 9.52328857 -17.90713928 9.04657715 -17.34817505 8.55541992 C-16.20040038 7.52000292 -15.07720983 6.4562357 -13.98849487 5.35888672 C-9.47866814 1.01610955 -6.17825146 0.00679955 0 0 Z " fill="#003F1F" transform="translate(148.5546875,253.0625)"/>
<path d="M0 0 C19.73208028 0.06051579 39.46402423 0.13800243 59.19595623 0.23571491 C68.35775795 0.28068808 77.51952067 0.32009923 86.68139648 0.34643555 C94.66652078 0.36940332 102.65152179 0.40278764 110.63654834 0.44870156 C114.86490735 0.4726503 119.09314414 0.49136823 123.32156944 0.49761391 C127.30166986 0.50365733 131.2814575 0.52363006 135.26144218 0.55427551 C136.72190937 0.56306769 138.18241742 0.56677587 139.64291 0.56500816 C141.63804914 0.56335583 143.63317463 0.58181879 145.6282196 0.60127258 C146.74451091 0.60588155 147.86080221 0.61049051 149.01092052 0.61523914 C152.40637477 1.05230945 154.29520437 1.92218582 157 4 C158.16653428 7.49960284 158.10650565 10.19641614 158.08229065 13.89054871 C158.07906152 14.59548299 158.07583239 15.30041727 158.07250541 16.02671319 C158.06041875 18.39440971 158.04104831 20.76199093 158.02172852 23.12963867 C158.01158695 24.82463835 158.00189315 26.51964076 157.99261475 28.21464539 C157.96612149 32.82179634 157.93334445 37.42888394 157.89946485 42.03598571 C157.86513398 46.84861908 157.83654655 51.66128643 157.80735779 56.47395325 C157.75119259 65.58995296 157.68983944 74.70591013 157.62663645 83.82186347 C157.55494109 94.19897786 157.48900786 104.57612634 157.42356598 114.95328176 C157.28880274 136.30223211 157.1467795 157.6511291 157 179 C154.03 178.34 151.06 177.68 148 177 C147.99761165 176.16693895 147.99522329 175.33387791 147.99276257 174.47557259 C147.93369256 154.22932928 147.85819415 133.98320581 147.76428509 113.73709297 C147.7192703 103.94632161 147.67986888 94.15558708 147.65356445 84.36474609 C147.63063025 75.83359998 147.5972839 67.3025699 147.55129844 58.77151573 C147.52730417 54.25205934 147.50861619 49.73271831 147.50238609 45.21319962 C147.49636312 40.96308132 147.47646534 36.71325841 147.44572449 32.46324921 C147.43689927 30.89992952 147.43323088 29.3365713 147.43499184 27.77322769 C147.43663253 25.64535752 147.42005101 23.51840089 147.39872742 21.39065552 C147.39181397 19.60145534 147.39181397 19.60145534 147.38476086 17.7761097 C147.25778977 16.8599935 147.13081869 15.9438773 147 15 C143.58092348 12.72061565 142.3440168 12.74311916 138.32429504 12.7215271 C137.14218948 12.71036362 135.96008392 12.69920013 134.74215698 12.68769836 C132.79468063 12.68445808 132.79468063 12.68445808 130.80786133 12.68115234 C129.42812003 12.6718551 128.04838436 12.66168673 126.6686554 12.65071106 C122.92103065 12.62337388 119.17344357 12.6082507 115.42574525 12.59528303 C111.5099163 12.57966871 107.59416446 12.5528731 103.6783905 12.5272522 C96.26241582 12.48043426 88.84642668 12.44370478 81.43037957 12.41057932 C72.98785957 12.37237921 64.54541695 12.32296354 56.10296214 12.27259517 C38.73536404 12.16923048 21.36772118 12.07998487 4 12 C3.3291288 10.3767313 2.66342971 8.75132422 2 7.125 C1.62875 6.22007813 1.2575 5.31515625 0.875 4.3828125 C0 2 0 2 0 0 Z " fill="#005329" transform="translate(219,83)"/>
<path d="M0 0 C20.87082931 -0.11683847 41.74160465 -0.20499075 62.61269474 -0.25906086 C72.30367533 -0.28483468 81.99445263 -0.31996951 91.68530273 -0.37719727 C100.13256147 -0.42705739 108.57967296 -0.45929699 117.02707475 -0.47044247 C121.49935061 -0.47695683 125.97120526 -0.49225012 130.44334602 -0.52865028 C134.65492512 -0.56265112 138.86591052 -0.57304482 143.07761383 -0.56553841 C144.62114885 -0.56691114 146.16470423 -0.57681973 147.70812035 -0.59602737 C160.81010317 -0.75104795 160.81010317 -0.75104795 165.34837341 2.28547668 C169.84721975 6.89103591 170.2495672 9.80728598 170.24050903 16.23858643 C170.24221788 16.96887645 170.24392673 17.69916646 170.24568737 18.45158648 C170.24898214 20.89913918 170.23797886 23.34641786 170.22705078 25.79394531 C170.22648666 27.54820754 170.22680324 29.30247023 170.22793579 31.05673218 C170.22851029 35.82084745 170.21674029 40.58486229 170.20278788 45.3489542 C170.19029666 50.32709305 170.18911129 55.30523413 170.18673706 60.28338623 C170.18051756 69.71100575 170.16410037 79.13857897 170.14403808 88.56617808 C170.12169371 99.2988292 170.11068933 110.03148251 170.10064721 120.7641511 C170.07973457 142.84279326 170.04454944 164.92139371 170 187 C167.03 187 164.06 187 161 187 C160.99503478 185.66675454 160.99503478 185.66675454 160.98996925 184.30657482 C160.90882109 162.69973986 160.81675567 141.09297561 160.71247292 119.48623943 C160.66230747 109.03747211 160.61586505 98.58871278 160.578125 88.13989258 C160.54522924 79.03487427 160.5054115 69.92991735 160.45720994 60.82496673 C160.43192087 56.00200869 160.41014675 51.1790915 160.39665604 46.35608482 C160.38385748 41.8195752 160.36182709 37.2832055 160.33261681 32.74677277 C160.32352372 31.07905143 160.31784678 29.41130755 160.31578636 27.7435627 C160.31247599 25.4717191 160.29703232 23.20027518 160.2784729 20.92851257 C160.27294214 19.65551646 160.26741138 18.38252035 160.26171303 17.0709486 C160.23391122 13.82865282 160.23391122 13.82865282 158 11 C154.73371991 9.91123997 152.37114203 9.8806795 148.93360901 9.8888855 C147.03028809 9.88937645 147.03028809 9.88937645 145.08851624 9.88987732 C143.67953478 9.89513698 142.27055346 9.900433 140.86157227 9.90576172 C139.37995459 9.90764068 137.89833615 9.90898571 136.41671753 9.90983582 C133.22463353 9.91212022 130.03256526 9.91684404 126.84048653 9.92303085 C121.79417913 9.93142797 116.74794797 9.92600642 111.7016449 9.91702271 C110.42460822 9.9148162 110.42460822 9.9148162 109.12177283 9.91256511 C107.38087264 9.9094944 105.63997254 9.90637437 103.89907253 9.90320611 C92.14966984 9.88200906 80.40051603 9.8683548 68.65112305 9.90039062 C60.72669986 9.92189716 52.80271359 9.91881063 44.8783192 9.88698208 C40.68385796 9.87110837 36.49023233 9.86794457 32.29580879 9.89474106 C28.3514391 9.91971964 24.40847128 9.91229013 20.46416855 9.87986183 C19.01615689 9.87375928 17.56803802 9.8796473 16.12013435 9.89835548 C5.17497282 10.0300201 5.17497282 10.0300201 2.23631096 7.45389175 C0.79212803 5.04279588 0 2.82940711 0 0 Z " fill="#EAD6A4" transform="translate(216,75)"/>
<path d="M0 0 C5.91237012 5.91237012 12.93874793 14.1631136 14.4609375 22.53515625 C14.29203575 25.19758123 13.76077707 27.43969255 13 30 C12.67 31.21171875 12.34 32.4234375 12 33.671875 C9.71980878 41.52131375 7.24244612 49.63731544 0.0390625 54.2578125 C-6.33428224 57.36395524 -14.45268969 60.24078042 -21.58203125 59.86328125 C-24.82335045 58.70604128 -26.22185917 56.98953517 -28.4375 54.375 C-29.20707031 53.47007812 -29.97664062 52.56515625 -30.76953125 51.6328125 C-31.50558594 50.76398438 -32.24164063 49.89515625 -33 49 C-33.64324219 48.33742187 -34.28648437 47.67484375 -34.94921875 46.9921875 C-35.77873047 46.12980469 -35.77873047 46.12980469 -36.625 45.25 C-37.11226562 44.76015625 -37.59953125 44.2703125 -38.1015625 43.765625 C-39.53675838 40.94515309 -38.76287035 39.0190954 -38 36 C-37.08575397 33.4078114 -36.14015827 30.86359948 -35.125 28.3125 C-32.90171214 22.66906948 -31.18008254 17.25463877 -30.2265625 11.234375 C-27.13150495 5.59624469 -18.02580223 3.73416527 -12.25 1.6875 C-11.50878906 1.41099609 -10.76757812 1.13449219 -10.00390625 0.84960938 C-3.67575944 -1.405574 -3.67575944 -1.405574 0 0 Z " fill="#EFD8A8" transform="translate(181,102)"/>
<path d="M0 0 C5.97717291 1.57004081 11.77105319 3.56118733 17.5 5.875 C18.6859375 6.34679687 19.871875 6.81859375 21.09375 7.3046875 C24 9 24 9 25.2890625 11.25 C25.52367187 12.1575 25.75828125 13.065 26 14 C26.30679688 15.11632812 26.61359375 16.23265625 26.9296875 17.3828125 C27.24164063 18.61773437 27.55359375 19.85265625 27.875 21.125 C29.33457003 26.83505098 31.10848129 32.27368521 33.36328125 37.73046875 C34.25389953 40.90500385 33.50961394 42.94747386 32.09204102 45.87524414 C31.73295654 46.50551514 31.37387207 47.13578613 31.00390625 47.78515625 C30.61009766 48.48060547 30.21628906 49.17605469 29.81054688 49.89257812 C29.39869141 50.60865234 28.98683594 51.32472656 28.5625 52.0625 C28.15451172 52.78244141 27.74652344 53.50238281 27.32617188 54.24414062 C25.62567737 57.23179573 23.90843196 60.13735206 22 63 C11.94976945 62.84047253 0.54517906 59.60231191 -7.3203125 53.07421875 C-10.85486251 48.64271007 -12.59712644 43.43497374 -14 38 C-14.20496094 37.25621094 -14.40992188 36.51242188 -14.62109375 35.74609375 C-16.49922654 28.29832578 -17.46489968 22.0046915 -13.625 15.0625 C-9.86663322 9.30750087 -5.01481595 4.65803063 0 0 Z " fill="#EFD9A8" transform="translate(64,100)"/>
<path d="M0 0 C2.17529297 0.04541016 2.17529297 0.04541016 4.8671875 0.4140625 C8.99743442 0.87866478 12.8609202 0.99009415 17.0078125 0.7109375 C34.15944173 -0.32433605 34.15944173 -0.32433605 38.34375 3.19921875 C40.59175389 6.02077158 42.28747635 8.83183125 44 12 C45.17471319 13.30197378 46.37947491 14.57809567 47.625 15.8125 C50 19 50 19 49.83984375 21.8671875 C47.53551609 30.46286556 40.66317625 39.20368357 34 45 C30.80684285 46.37636084 29.31569646 46.80495903 26 47 C24.38351563 47.10054687 24.38351563 47.10054687 22.734375 47.203125 C13.36482877 47.48705064 4.99457597 47.19915899 -2.125 40.5625 C-6.61197539 35.59740428 -11.24735599 30.12167763 -14 24 C-13.5234375 21.6796875 -13.5234375 21.6796875 -12 19 C-11.64244629 18.35603271 -11.28489258 17.71206543 -10.91650391 17.04858398 C-9.64256709 14.78338565 -8.32675336 12.54713174 -7 10.3125 C-6.54882812 9.54099609 -6.09765625 8.76949219 -5.6328125 7.97460938 C-2.25742937 2.25742937 -2.25742937 2.25742937 0 0 Z " fill="#EFD9A9" transform="translate(103,144)"/>
<path d="M0 0 C7.67434096 3.4252818 14.54647419 7.14182151 19.23339844 14.31005859 C20.76613588 18.99606207 20.41757408 23.87072841 20.42089844 28.74755859 C20.43314453 29.68921875 20.44539063 30.63087891 20.45800781 31.60107422 C20.47827608 41.17445202 20.47827608 41.17445202 18.23339844 44.31005859 C15.67583735 45.60676597 13.42683644 46.5497383 10.73339844 47.43505859 C10.01667969 47.68658691 9.29996094 47.93811523 8.56152344 48.19726562 C3.17206007 50.0668569 -2.26441301 51.80224731 -7.76660156 53.31005859 C-8.38535156 52.65005859 -9.00410156 51.99005859 -9.64160156 51.31005859 C-14.4899822 46.50242065 -19.70591671 41.5393796 -26.08300781 38.97802734 C-29.85307449 37.4335018 -32.07761599 36.40646622 -34.76660156 33.31005859 C-36.28934786 26.4647894 -35.49145765 19.22499981 -34.76660156 12.31005859 C-32.26797032 10.89093308 -29.76775875 9.47472019 -27.26660156 8.06005859 C-26.57050781 7.66431641 -25.87441406 7.26857422 -25.15722656 6.86083984 C-21.63116367 4.86926729 -18.08725895 2.91897713 -14.48925781 1.06005859 C-13.87058838 0.74037109 -13.25191895 0.42068359 -12.61450195 0.09130859 C-8.23493004 -1.7602742 -4.43772711 -1.73314218 0 0 Z " fill="#EFD9A9" transform="translate(157.7666015625,52.68994140625)"/>
<path d="M0 0 C1.2581786 0.68735043 2.50699967 1.39209483 3.74609375 2.11328125 C4.36677734 2.45294922 4.98746094 2.79261719 5.62695312 3.14257812 C6.87609617 3.83944104 8.11243314 4.55976807 9.3347168 5.30273438 C10.58310096 6.06102926 11.85730484 6.77814026 13.15161133 7.45507812 C16.05379895 9.14736801 17.79751577 10.41883143 19.0222168 13.61303711 C20.19237459 19.75561812 20.4104364 26.52143362 18.18359375 32.42578125 C14.0074109 37.23994111 7.99645225 39.64887665 2.32910156 42.30566406 C-1.83809878 44.4812575 -4.86933564 47.82953075 -7.81640625 51.42578125 C-28.11640625 45.12578125 -28.11640625 45.12578125 -32.81640625 40.42578125 C-33.35889703 36.23956077 -33.27977418 32.01804803 -33.31640625 27.80078125 C-33.35765625 26.63675781 -33.39890625 25.47273438 -33.44140625 24.2734375 C-33.50204119 17.58085546 -33.0667651 13.08315209 -28.52294922 7.98632812 C-26.06567252 5.73927338 -23.55826489 4.0661994 -20.62890625 2.48828125 C-19.60410156 1.92238281 -18.57929687 1.35648438 -17.5234375 0.7734375 C-11.67294423 -2.13914573 -5.95243826 -2.86070554 0 0 Z " fill="#EFDAAA" transform="translate(98.81640625,53.57421875)"/>
<path d="M0 0 C0.33 0 0.66 0 1 0 C0.98889694 0.63289948 0.97779388 1.26579895 0.96635437 1.9178772 C0.85479978 8.57010629 0.77993849 15.22206511 0.7253418 21.875 C0.70036576 24.35004489 0.66637293 26.8250173 0.62280273 29.29980469 C0.03374989 48.76141563 0.03374989 48.76141563 6 67 C6.39195557 67.77182617 6.78391113 68.54365234 7.18774414 69.33886719 C8.27298617 71.31678198 9.43734872 73.18536697 10.6875 75.0625 C11.11538818 75.72459473 11.54327637 76.38668945 11.98413086 77.06884766 C18.78090719 87.42856046 26.48367122 96.99912148 35 106 C35.76828125 106.82113281 36.5365625 107.64226562 37.328125 108.48828125 C42.39250147 113.74052975 47.69293313 118.28593928 53.62207031 122.51367188 C56.99988842 124.97817436 59.18208711 127.21848782 61 131 C61 131.66 61 132.32 61 133 C62.29233607 134.37310707 63.62437146 135.71034824 65 137 C64.67 137.66 64.34 138.32 64 139 C55.27024548 134.49432025 47.10225078 129.57388883 39 124 C37.89527344 123.30261719 36.79054687 122.60523438 35.65234375 121.88671875 C34.77707031 121.26410156 33.90179688 120.64148438 33 120 C33 119.34 33 118.68 33 118 C30.91671072 116.91977593 28.96902332 115.99055848 26.71875 115.3046875 C23.10040482 113.56829772 20.80232252 110.95696855 18.1875 108 C17.65979004 107.41404053 17.13208008 106.82808105 16.58837891 106.22436523 C12.19032734 101.30222483 7.98000101 96.2676484 4 91 C3.19820312 89.95457031 2.39640625 88.90914063 1.5703125 87.83203125 C-7.69291251 75.49816301 -17.90324581 59.83184633 -17.42578125 43.82421875 C-16.68822228 38.93196983 -14.96193652 34.37465814 -13.28515625 29.7421875 C-12.13985979 26.40725131 -11.33668667 23.19653294 -10.625 19.75 C-9.11062561 13.28108282 -5.81470666 8.35897345 -2 3 C-1.34 2.01 -0.68 1.02 0 0 Z " fill="#D6B982" transform="translate(208,110)"/>
<path d="M0 0 C2.41157799 0.04553823 4.82023658 0.04298175 7.23217773 0.03979492 C18.21775769 0.17445746 25.59304428 2.32631975 34.98022461 8.1081543 C35.86685791 8.62611572 36.75349121 9.14407715 37.66699219 9.67773438 C40.03452235 11.08645611 42.35382731 12.55079998 44.66772461 14.0456543 C45.41860352 14.51938477 46.16948242 14.99311523 46.94311523 15.48120117 C51.18483872 18.18768744 55.27529379 21.03699749 59.32006836 24.0300293 C64.97036248 28.17430063 70.83407112 31.84261907 76.85522461 35.4206543 C77.94383789 36.06873047 79.03245117 36.71680664 80.15405273 37.38452148 C106.99673911 53.23188006 134.98479581 65.0646313 164.30053711 75.45581055 C164.97250626 75.69490646 165.6444754 75.93400238 166.33680725 76.18034363 C170.51713097 77.64924637 174.71185593 78.92909077 178.98022461 80.1081543 C175.25853381 81.44215418 172.59506983 80.77495407 168.80834961 79.8503418 C167.59501953 79.55724121 166.38168945 79.26414062 165.1315918 78.9621582 C163.83093063 78.63664334 162.53047871 78.31029137 161.23022461 77.9831543 C159.89592741 77.65286212 158.56161746 77.32262144 157.22729492 76.99243164 C148.7661616 74.88239715 140.36476749 72.6967861 132.11791992 69.84643555 C130.5628581 69.30937445 129.00443549 68.78201454 127.4440918 68.26049805 C97.69455504 58.28485542 67.74721555 45.45506987 40.93725586 29.04956055 C25.98767388 19.98996658 9.83959081 14.3756059 -7.01977539 10.1081543 C-9.17139595 9.55105072 -11.32188018 8.99001744 -13.47119141 8.42407227 C-15.24245995 7.96051652 -17.01768006 7.51213002 -18.79321289 7.06518555 C-22.37012498 6.00423704 -25.61902677 4.63633881 -29.01977539 3.1081543 C-29.01977539 2.7781543 -29.01977539 2.4481543 -29.01977539 2.1081543 C-19.27100963 0.17531216 -9.90398183 -0.22187329 0 0 Z " fill="#D9BD84" transform="translate(118.019775390625,193.891845703125)"/>
<path d="M0 0 C5.52451709 5.09955423 5.52451709 5.09955423 6 9 C2.5775134 17.48181461 -3.16172098 25.89731275 -10 32 C-19.14122474 35.38563879 -30.57194325 35.41219496 -39.765625 32.15234375 C-48.22904732 27.78746685 -53.11084483 18.80184336 -58 11 C-57.34 9.68 -56.68 8.36 -56 7 C-56 7.66 -56 8.32 -56 9 C-54.7625 9.37125 -54.7625 9.37125 -53.5 9.75 C-50.13827617 10.95061565 -47.15602109 12.40215626 -44.02734375 14.09765625 C-36.75485423 17.33454465 -27.2473345 17.12089419 -19.69921875 15.12890625 C-11.38134175 11.90533257 -5.20193814 7.22579249 0 0 Z " fill="#D5B881" transform="translate(147,157)"/>
<path d="M0 0 C7.31143977 1.46228795 12.33105999 2.74514227 18.625 6.125 C19.34300781 6.49753906 20.06101562 6.87007812 20.80078125 7.25390625 C22.53968862 8.15813808 24.27074438 9.07744427 26 10 C26.13530844 13.06398451 26.2342407 16.12197126 26.3125 19.1875 C26.35439453 20.05181641 26.39628906 20.91613281 26.43945312 21.80664062 C26.52606999 26.32804103 26.50956402 28.33205797 23.6875 32.03125 C20.8440301 34.11425702 18.40175612 35.12978332 15 36 C15 36.66 15 37.32 15 38 C13.4609375 39.55078125 13.4609375 39.55078125 11.375 41.3125 C10.28638672 42.23675781 10.28638672 42.23675781 9.17578125 43.1796875 C8.45777344 43.78039062 7.73976563 44.38109375 7 45 C6.09314453 45.77730469 6.09314453 45.77730469 5.16796875 46.5703125 C1.14053571 50 1.14053571 50 0 50 C0 33.5 0 17 0 0 Z " fill="#003F20" transform="translate(107,221)"/>
<path d="M0 0 C2.36390566 2.98718625 4.33789404 6.13044241 6.31030273 9.37988281 C14.75278324 23.25261156 24.54609003 35.97581321 36.3203125 47.21484375 C38 49 38 49 38 51 C38.55171875 51.22945312 39.1034375 51.45890625 39.671875 51.6953125 C42.65656179 53.36793899 44.78556025 55.50005108 47.25 57.875 C52.7281046 63.05423553 58.56881825 67.58627092 64.65527344 72.02685547 C65.63222168 72.74059326 65.63222168 72.74059326 66.62890625 73.46875 C67.20713135 73.88576172 67.78535645 74.30277344 68.38110352 74.73242188 C70.05834272 76.04568171 71.5252597 77.46522009 73 79 C71.9275 78.649375 70.855 78.29875 69.75 77.9375 C65.7307418 76.86230972 65.7307418 76.86230972 62 78 C61.67 78.66 61.34 79.32 61 80 C61.99 80.99 62.98 81.98 64 83 C53.70377636 79.18043316 45.25858722 72.05241502 37 65 C36.22785156 64.37480469 35.45570313 63.74960938 34.66015625 63.10546875 C17.70707241 48.95307011 4.88554418 25.43045451 0 4 C0 2.68 0 1.36 0 0 Z " fill="#EADAAA" transform="translate(226,165)"/>
<path d="M0 0 C9.24 0 18.48 0 28 0 C25.0625 11.125 25.0625 11.125 24.14086914 14.59814453 C23.77916626 15.97655518 23.77916626 15.97655518 23.41015625 17.3828125 C23.16402588 18.31496582 22.91789551 19.24711914 22.66430664 20.20751953 C21.97397292 23.10940749 21.49038083 26.057715 21 29 C12.75 29 4.5 29 -4 29 C-4 22.23397298 -3.81709524 16.50055397 -2.5625 10 C-2.36043945 8.87658203 -2.36043945 8.87658203 -2.15429688 7.73046875 C-1.15217634 2.30435268 -1.15217634 2.30435268 0 0 Z " fill="#005329" transform="translate(322,105)"/>
<path d="M0 0 C52.8 0.33 105.6 0.66 160 1 C160 1.33 160 1.66 160 2 C118.42 2.495 118.42 2.495 76 3 C76.495 4.485 76.495 4.485 77 6 C78.37063095 6.0154612 78.37063095 6.0154612 79.76895142 6.03123474 C88.39080477 6.12931461 97.01259135 6.23184378 105.63433266 6.33933926 C110.06658139 6.39444423 114.49883686 6.44784391 118.93115234 6.49731445 C123.21058057 6.54514185 127.48993203 6.59749046 131.76926804 6.65294075 C133.3998663 6.6732813 135.03048555 6.69200767 136.66112137 6.70907402 C138.94945075 6.73330276 141.23763746 6.76333065 143.52587891 6.79467773 C145.47779648 6.81799416 145.47779648 6.81799416 147.46914673 6.84178162 C150.7310224 6.98794705 153.79719409 7.38397783 157 8 C157 8.33 157 8.66 157 9 C106.51 9 56.02 9 4 9 C0 2 0 2 0 0 Z " fill="#F9E8B5" transform="translate(216,75)"/>
<path d="M0 0 C8.91 0 17.82 0 27 0 C25.68 9.24 24.36 18.48 23 28 C14.42 28 5.84 28 -3 28 C-3.31126609 17.83197443 -2.42110297 9.88617047 0 0 Z " fill="#00532A" transform="translate(287,105)"/>
<path d="M0 0 C8.58 0 17.16 0 26 0 C26 9.24 26 18.48 26 28 C17.75 28 9.5 28 1 28 C-0.125 19 -0.125 19 -0.09765625 14.84375 C-0.09515869 14.05162109 -0.09266113 13.25949219 -0.09008789 12.44335938 C-0.08098389 11.47205078 -0.07187988 10.50074219 -0.0625 9.5 C-0.041875 6.365 -0.02125 3.23 0 0 Z " fill="#00532A" transform="translate(283,141)"/>
<path d="M0 0 C8.25 0 16.5 0 25 0 C24.0625 14.59821429 24.0625 14.59821429 23.5 21.3125 C23.4278125 22.17488281 23.355625 23.03726563 23.28125 23.92578125 C23 26 23 26 22 28 C13.75 28 5.5 28 -3 28 C-3 20.76897767 -2.87482417 14.7241032 -1.5 7.8125 C-1.005 5.234375 -0.51 2.65625 0 0 Z " fill="#005329" transform="translate(253,105)"/>
<path d="M0 0 C8.25 0 16.5 0 25 0 C25.33 9.24 25.66 18.48 26 28 C18.41 28 10.82 28 3 28 C2.505 25.050625 2.01 22.10125 1.5 19.0625 C1.26506836 17.69750366 1.26506836 17.69750366 1.02539062 16.30493164 C0.90357422 15.55590576 0.78175781 14.80687988 0.65625 14.03515625 C0.53056641 13.2862915 0.40488281 12.53742676 0.27539062 11.76586914 C-0.11329375 7.86214105 0 3.92303053 0 0 Z " fill="#00532A" transform="translate(250,140)"/>
<path d="M0 0 C7.92 0 15.84 0 24 0 C25.13596833 9.99652129 26.22830516 19.96796713 27 30 C20.4 30 13.8 30 7 30 C5.03607581 23.70189828 3.07514519 17.40247802 1.25 11.0625 C0.88648438 9.81146484 0.88648438 9.81146484 0.515625 8.53515625 C0 6 0 6 0 0 Z " fill="#00532A" transform="translate(286,176)"/>
<path d="M0 0 C3.93279119 3.8251569 7.66657474 7.47338666 8.203125 13.1484375 C7.62211555 22.86420668 4.0982715 35.00247099 -2.2890625 42.4921875 C-8.43883374 47.91184892 -19.46852807 51.26179485 -27.55859375 50.87890625 C-30.90686256 49.67352948 -32.48369917 47.78979696 -34.8125 45.125 C-35.60269531 44.24070313 -36.39289063 43.35640625 -37.20703125 42.4453125 C-39 40 -39 40 -39 37 C-38.113125 37.165 -37.22625 37.33 -36.3125 37.5 C-27.15203666 38.70532412 -19.14402204 39.39738211 -11.23046875 33.98828125 C-6.34442259 29.632769 -1.45652986 23.63532516 -0.79467773 16.9152832 C-0.75802002 16.13499756 -0.7213623 15.35471191 -0.68359375 14.55078125 C-0.62075195 13.27944336 -0.62075195 13.27944336 -0.55664062 11.98242188 C-0.51732422 11.10134766 -0.47800781 10.22027344 -0.4375 9.3125 C-0.37272461 7.97348633 -0.37272461 7.97348633 -0.30664062 6.60742188 C-0.20064647 4.40509892 -0.09857949 2.20266527 0 0 Z " fill="#D4B67F" transform="translate(187,111)"/>
<path d="M0 0 C7.92 0 15.84 0 24 0 C23.34 9.24 22.68 18.48 22 28 C14.74 28 7.48 28 0 28 C0 18.76 0 9.52 0 0 Z " fill="#00542A" transform="translate(317,141)"/>
<path d="M0 0 C6.6 0 13.2 0 20 0 C20 9.9 20 19.8 20 30 C14.39 30 8.78 30 3 30 C2.49194338 26.68855952 1.99337791 23.37613273 1.5 20.0625 C1.35691406 19.13630859 1.21382813 18.21011719 1.06640625 17.25585938 C0.93105469 16.33740234 0.79570312 15.41894531 0.65625 14.47265625 C0.53056641 13.64000244 0.40488281 12.80734863 0.27539062 11.94946289 C-0.09500324 7.98250521 0 3.98421194 0 0 Z " fill="#00542A" transform="translate(318,177)"/>
<path d="M0 0 C7.26 0 14.52 0 22 0 C22.66 2.97 23.32 5.94 24 9 C24.67801095 11.75298031 25.36237517 14.50274211 26.0625 17.25 C27.14068949 21.48259518 28.19270563 25.70552685 29 30 C25.10509613 30.7997141 21.87841364 30.96102285 18 30 C13.94853548 26.47297826 11.08388889 22.37469353 8 18 C6.8342266 16.62424257 5.66771245 15.24911199 4.5 13.875 C2 10 2 10 0 0 Z " fill="#00532A" transform="translate(256,176)"/>
<path d="M0 0 C0.33 0 0.66 0 1 0 C1.33 18.81 1.66 37.62 2 57 C2.99 56.505 2.99 56.505 4 56 C9.21326001 66.42652003 5.94325739 84.60498341 5.703125 95.90771484 C5.62446188 99.65060422 5.55765949 103.39357771 5.4921875 107.13671875 C5.44600928 109.52084693 5.3991588 111.90496221 5.3515625 114.2890625 C5.33171295 115.40568268 5.3118634 116.52230286 5.29141235 117.67276001 C5.26823944 118.70839081 5.24506653 119.74402161 5.22119141 120.81103516 C5.20263092 121.71923004 5.18407043 122.62742493 5.16494751 123.56314087 C5.01127977 125.83335778 4.63250007 127.819977 4 130 C3.34 130 2.68 130 2 130 C1.97310784 128.52093108 1.95365379 127.04172517 1.9375 125.5625 C1.92589844 124.73878906 1.91429687 123.91507812 1.90234375 123.06640625 C2 121 2 121 3 120 C2.67 120 2.34 120 2 120 C1.67 135.18 1.34 150.36 1 166 C0.67 166 0.34 166 0 166 C0 111.22 0 56.44 0 0 Z " fill="#F8E5B4" transform="translate(378,91)"/>
<path d="M0 0 C6.27 0 12.54 0 19 0 C18.14121892 9.01720132 17.07462534 18.00653358 16 27 C12.37 27 8.74 27 5 27 C1.41037488 18.18910198 0.90689571 9.41776314 0 0 Z " fill="#00542A" transform="translate(226,105)"/>
<path d="M0 0 C4.29 0 8.58 0 13 0 C13 9.9 13 19.8 13 30 C9.04 30 5.08 30 1 30 C0.01168844 23.46313616 -0.11883529 17.10422885 -0.0625 10.5 C-0.05798828 9.48679688 -0.05347656 8.47359375 -0.04882812 7.4296875 C-0.0371461 4.95309907 -0.01921455 2.47654144 0 0 Z " fill="#005329" transform="translate(346,177)"/>
<path d="M0 0 C6.27 0 12.54 0 19 0 C19.598125 2.475 20.19625 4.95 20.8125 7.5 C21.91722929 12.0264733 23.03248355 16.43181193 24.8125 20.75 C26.0352451 24.09646028 26.02137141 24.80387177 25 28 C7.24520613 17.89958876 7.24520613 17.89958876 3 9 C2.38125 7.88625 1.7625 6.7725 1.125 5.625 C0 3 0 3 0 0 Z " fill="#00542A" transform="translate(297,215)"/>
<path d="M0 0 C3.41692097 0.32864304 5.71483008 1.44554461 8.76171875 3.015625 C10.27765625 3.78132812 10.27765625 3.78132812 11.82421875 4.5625 C14.72045127 6.24169864 17.20885214 8.10695103 19.76171875 10.265625 C18.77171875 10.265625 17.78171875 10.265625 16.76171875 10.265625 C16.76171875 12.245625 16.76171875 14.225625 16.76171875 16.265625 C16.10171875 16.265625 15.44171875 16.265625 14.76171875 16.265625 C14.43171875 18.245625 14.10171875 20.225625 13.76171875 22.265625 C13.10171875 22.265625 12.44171875 22.265625 11.76171875 22.265625 C11.76171875 22.925625 11.76171875 23.585625 11.76171875 24.265625 C10.77171875 24.265625 9.78171875 24.265625 8.76171875 24.265625 C8.76171875 23.605625 8.76171875 22.945625 8.76171875 22.265625 C7.75109375 21.9975 6.74046875 21.729375 5.69921875 21.453125 C-1.46432135 19.38589098 -7.80494216 15.95640684 -14.23828125 12.265625 C-14.23828125 11.275625 -14.23828125 10.285625 -14.23828125 9.265625 C-15.22828125 8.935625 -16.21828125 8.605625 -17.23828125 8.265625 C-15.91828125 7.605625 -14.59828125 6.945625 -13.23828125 6.265625 C-12.37203125 6.843125 -11.50578125 7.420625 -10.61328125 8.015625 C-10.06542969 8.37527344 -9.51757812 8.73492187 -8.953125 9.10546875 C-7.32252626 10.20863009 -5.74689289 11.39177539 -4.17578125 12.578125 C-1.38372059 14.55412297 -1.38372059 14.55412297 1.63671875 14.015625 C2.33796875 13.768125 3.03921875 13.520625 3.76171875 13.265625 C3.01921875 12.54375 2.27671875 11.821875 1.51171875 11.078125 C-0.9311864 8.57969927 -3.10638595 6.02919298 -5.23828125 3.265625 C-3.55991427 1.1455825 -2.73248065 0.32427344 0 0 Z " fill="#E0CC9C" transform="translate(291.23828125,240.734375)"/>
<path d="M0 0 C4.95 0 9.9 0 15 0 C15.99 9.9 16.98 19.8 18 30 C15.03 30 12.06 30 9 30 C6.33679531 23.78585573 4.16540192 17.53857905 2.25 11.0625 C2.02739502 10.31685791 1.80479004 9.57121582 1.57543945 8.80297852 C0.69657545 5.77677633 0 3.16780194 0 0 Z " fill="#00542A" transform="translate(324,215)"/>
<path d="M0 0 C2.69743792 1.03137332 5.16274249 2.09473426 7.6640625 3.55078125 C11.61182689 5.26579365 15.02504365 5.45386963 19.25 5.375 C20.37172607 5.36738647 20.37172607 5.36738647 21.51611328 5.35961914 C26.71139498 5.24218307 31.24767736 4.46737386 36.1171875 2.55859375 C38 2 38 2 41 3 C38.03 7.95 35.06 12.9 32 18 C22.0218743 17.84161705 10.07643465 14.69222784 2.57421875 7.7578125 C1.17758696 5.88452595 0.00162471 4.10724324 -1 2 C-0.67 1.34 -0.34 0.68 0 0 Z " fill="#DABF87" transform="translate(54,145)"/>
<path d="M0 0 C1.9375 0.75 1.9375 0.75 4 2 C5.60954948 6.62658105 5.18420453 11.60305146 5.1875 16.4375 C5.19974609 17.37916016 5.21199219 18.32082031 5.22460938 19.29101562 C5.24487764 28.86439343 5.24487764 28.86439343 3 32 C0.44243891 33.29670737 -1.806562 34.23967971 -4.5 35.125 C-5.21671875 35.37652832 -5.9334375 35.62805664 -6.671875 35.88720703 C-12.06133837 37.7567983 -17.49781145 39.49218872 -23 41 C-27.875 36.25 -27.875 36.25 -29 34 C-28.24976563 33.91363281 -27.49953125 33.82726562 -26.7265625 33.73828125 C-18.28185782 32.57899559 -11.36833029 30.36025407 -4.5625 25.125 C-0.37884127 19.43522413 0.43204772 14.41610655 0.1875 7.5625 C0.17396484 6.83095703 0.16042969 6.09941406 0.14648438 5.34570312 C0.11153874 3.56347578 0.05774805 1.78163427 0 0 Z " fill="#D3B57E" transform="translate(173,65)"/>
<path d="M0 0 C4.04888332 2.02444166 5.44132331 6.96633366 7 11 C7.98406916 14.69248375 8.7255657 18.43350317 9.47119141 22.18017578 C10.45724585 26.99056298 11.79297188 31.28274951 13.75 35.8125 C16.44173872 42.26608763 16.50863213 48.09390591 16 55 C4.71457369 45.12525198 0.82964924 26.07979801 -0.15429688 11.75341797 C-0.30182404 7.82505733 -0.23382331 3.92303554 0 0 Z " fill="#F0E0B1" transform="translate(37,112)"/>
<path d="M0 0 C2.97 0 5.94 0 9 0 C9 9.24 9 18.48 9 28 C5.04 28 1.08 28 -3 28 C-3.210324 22.11092809 -2.79251741 16.45987793 -2.0625 10.625 C-1.97564941 9.92310547 -1.88879883 9.22121094 -1.79931641 8.49804688 C-1.4118178 5.5327156 -0.94831014 2.84493042 0 0 Z " fill="#00532A" transform="translate(350,142)"/>
<path d="M0 0 C3.63 0 7.26 0 11 0 C11 9.9 11 19.8 11 30 C8.36 30 5.72 30 3 30 C1.93833443 26.8150033 1.70048237 24.1468496 1.46484375 20.80078125 C1.37783203 19.59228516 1.29082031 18.38378906 1.20117188 17.13867188 C1.11416016 15.87603516 1.02714844 14.61339844 0.9375 13.3125 C0.84662109 12.03826172 0.75574219 10.76402344 0.66210938 9.45117188 C0.43794053 6.30100974 0.21738347 3.15063646 0 0 Z " fill="#00562B" transform="translate(347,215)"/>
<path d="M0 0 C6.74440579 1.24398312 12.26963413 3.21836837 18.3125 6.4375 C19.54709961 7.09032959 19.54709961 7.09032959 20.80664062 7.75634766 C29.58717481 12.58839182 37.17041468 18.75420498 43 27 C35.99530571 25.6488407 30.38266384 24.06437544 24.62890625 19.8046875 C22.45693965 18.31367922 20.34248968 17.06132144 18.02734375 15.8203125 C17.31416992 15.43697754 16.60099609 15.05364258 15.86621094 14.65869141 C14.4443149 13.90249255 13.01674462 13.15684092 11.58300781 12.42333984 C7.00446021 9.96267656 4.62214119 7.63390273 2 3 C1.34 2.01 0.68 1.02 0 0 Z " fill="#ECDBAB" transform="translate(147,38)"/>
<path d="M0 0 C0.33 0 0.66 0 1 0 C0.98428955 1.14831299 0.98428955 1.14831299 0.96826172 2.31982422 C0.92630696 5.83818182 0.90054937 9.35648652 0.875 12.875 C0.85824219 14.07898438 0.84148437 15.28296875 0.82421875 16.5234375 C0.58967117 28.83100966 0.58967117 28.83100966 5 40 C2.31651359 40.89449547 -0.23067798 41.45964448 -3 42 C-4.33542939 42.32483418 -5.66961551 42.6550855 -7 43 C-10.52103021 37.7752455 -12.13721199 35.31175142 -12 29 C-11.01 28.67 -10.02 28.34 -9 28 C-9 27.34 -9 26.68 -9 26 C-8.34 25.67 -7.68 25.34 -7 25 C-5.86649466 22.98330173 -5.86649466 22.98330173 -5 21 C-4.01 21.33 -3.02 21.66 -2 22 C-0.82530556 19.65061112 -0.79965111 18.04926795 -0.68359375 15.4296875 C-0.64169922 14.53378906 -0.59980469 13.63789063 -0.55664062 12.71484375 C-0.49766602 11.30912109 -0.49766602 11.30912109 -0.4375 9.875 C-0.39431641 8.93011719 -0.35113281 7.98523438 -0.30664062 7.01171875 C-0.20040928 4.67462908 -0.09836824 2.3374317 0 0 Z " fill="#CBB27C" transform="translate(207,137)"/>
<path d="M0 0 C-0.7425 0.721875 -1.485 1.44375 -2.25 2.1875 C-4.96993315 4.81396587 -4.96993315 4.81396587 -6.6875 7.42578125 C-9.65812022 10.73260343 -12.75700975 12.17009068 -16.75 14 C-18.19553871 14.68820529 -19.6395728 15.3795805 -21.08203125 16.07421875 C-21.76604004 16.40341309 -22.45004883 16.73260742 -23.15478516 17.07177734 C-25.35267105 18.17740875 -27.39572035 19.44164997 -29.4375 20.8125 C-33.34103704 23.39739254 -37.52117915 24.72478018 -42 26 C-35.45728379 17.94742621 -12.02087929 -6.01043964 0 0 Z " fill="#F0E2B4" transform="translate(99,38)"/>
<path d="M0 0 C0.66 0 1.32 0 2 0 C2 0.66 2 1.32 2 2 C3.18142578 2.11021484 3.18142578 2.11021484 4.38671875 2.22265625 C9.23393308 3.26546236 13.36590405 5.28657282 17.8125 7.4375 C18.68326172 7.84548828 19.55402344 8.25347656 20.45117188 8.67382812 C26.87043171 11.74086342 26.87043171 11.74086342 28 14 C19.09 14 10.18 14 1 14 C-0.04976964 10.85069107 -0.10131595 8.61185544 -0.0625 5.3125 C-0.05347656 4.31863281 -0.04445312 3.32476562 -0.03515625 2.30078125 C-0.02355469 1.54152344 -0.01195312 0.78226563 0 0 Z " fill="#003B1E" transform="translate(139,234)"/>
<path d="M0 0 C2.92319289 3.69195466 5.29863266 7.67735746 7.75 11.6875 C11.49304718 17.75566918 15.40983765 23.52828329 20 29 C19.67 29.66 19.34 30.32 19 31 C19 31.99 19 32.98 19 34 C18.34 34 17.68 34 17 34 C17.34444881 36.47266765 17.34444881 36.47266765 18 39 C18.66 39.33 19.32 39.66 20 40 C20.8515625 42.06640625 20.8515625 42.06640625 21.625 44.5625 C21.88539063 45.38878906 22.14578125 46.21507812 22.4140625 47.06640625 C22.70410156 48.02353516 22.70410156 48.02353516 23 49 C17.51026341 44.39107936 14.72486492 38.4317234 11.5 32.125 C10.92483643 31.00907471 10.34967285 29.89314941 9.75708008 28.7434082 C0 9.45959834 0 9.45959834 0 0 Z " fill="#EFE2B6" transform="translate(226,165)"/>
<path d="M0 0 C0.33 0 0.66 0 1 0 C1.02721831 3.0000624 1.04694378 5.99987256 1.0625 9 C1.07087891 9.83917969 1.07925781 10.67835937 1.08789062 11.54296875 C1.10545329 16.07413757 0.89351516 20.412643 0.25610352 24.91015625 C-0.25586794 29.08792138 -0.37619266 33.29739519 -0.5625 37.5 C-0.60568359 38.4178125 -0.64886719 39.335625 -0.69335938 40.28125 C-0.79833456 42.52072061 -0.90049248 44.76028092 -1 47 C-1.33 47 -1.66 47 -2 47 C-2 39.08 -2 31.16 -2 23 C-3.485 25.475 -3.485 25.475 -5 28 C-5.66 28 -6.32 28 -7 28 C-7 26.35 -7 24.7 -7 23 C-7.99 23.33 -8.98 23.66 -10 24 C-10.13227528 15.28872814 -7.0029714 9.94407809 -2 3 C-1.34 2.01 -0.68 1.02 0 0 Z " fill="#D9BC84" transform="translate(208,110)"/>
<path d="M0 0 C1.90271802 3.5399405 3.21985541 7.21654779 4.5625 11 C4.99691406 12.216875 5.43132812 13.43375 5.87890625 14.6875 C6.70452416 17.1269564 7.44174966 19.4910097 8 22 C6.35 21.67 4.7 21.34 3 21 C1.55475116 25.42605006 1.55475116 25.42605006 1 30 C1.66 30.33 2.32 30.66 3 31 C2.34 31.33 1.68 31.66 1 32 C1.66 32.94875 2.32 33.8975 3 34.875 C5 38 5 38 5 40 C6.65 40.33 8.3 40.66 10 41 C12 46.625 12 46.625 12 50 C3.85087399 40.95230115 -2.87964067 31.52797622 -9 21 C-9.44214844 20.24847656 -9.88429687 19.49695313 -10.33984375 18.72265625 C-11 17 -11 17 -10 14 C-9.01 15.98 -8.02 17.96 -7 20 C-6.443125 19.855625 -5.88625 19.71125 -5.3125 19.5625 C-3.67668918 19.16460007 -2.02877548 18.81500485 -0.375 18.5 C2.00287908 18.10412687 2.00287908 18.10412687 4 17 C3.51917969 16.47921875 3.03835937 15.9584375 2.54296875 15.421875 C0.54826135 12.29094187 0.49681589 9.93631779 0.3125 6.25 C0.24675781 5.07953125 0.18101562 3.9090625 0.11328125 2.703125 C0.07589844 1.81109375 0.03851563 0.9190625 0 0 Z " fill="#D8BB83" transform="translate(207,159)"/>
<path d="M0 0 C3.3 0 6.6 0 10 0 C10.13277344 1.51851562 10.26554688 3.03703125 10.40234375 4.6015625 C10.58060843 6.60938572 10.75900055 8.61719763 10.9375 10.625 C11.02451172 11.62402344 11.11152344 12.62304688 11.20117188 13.65234375 C11.63232053 18.47482126 12.09785214 23.23730947 13 28 C12.34 28 11.68 28 11 28 C0 6.94061758 0 6.94061758 0 0 Z " fill="#00552B" transform="translate(233,140)"/>
<path d="M0 0 C2.86724686 0.57344937 3.8614515 0.8614515 6 3 C6 2.01 6 1.02 6 0 C10.26580313 -0.07109672 13.88093476 -0.0984174 18 1 C19.99963028 1.03845443 22.00051633 1.04544281 24 1 C25.60367292 3.54700993 26.06442578 4.61401546 25.55859375 7.64453125 C25.37425781 8.42183594 25.18992187 9.19914063 25 10 C21.97824649 9.54718978 18.95770493 9.08793487 15.9375 8.625 C15.08994141 8.49867188 14.24238281 8.37234375 13.36914062 8.2421875 C8.43980654 7.48090038 3.76229751 6.48619868 -1 5 C-0.67 3.35 -0.34 1.7 0 0 Z " fill="#D2B67F" transform="translate(100,196)"/>
<path d="M0 0 C3.07475394 2.87878061 5.30986068 5.82332245 7.5625 9.375 C19.35384642 27.25709705 33.56244816 42.50259775 51 55 C45.2684949 57.92028061 45.2684949 57.92028061 42 58 C39.1875 55.5625 39.1875 55.5625 37 53 C37.99 53 38.98 53 40 53 C39.67 52.01 39.34 51.02 39 50 C39.495 49.01 39.495 49.01 40 48 C39.443125 47.773125 38.88625 47.54625 38.3125 47.3125 C35.34882645 45.63041501 33.38863229 43.43337612 31 41 C30.08863281 40.1234375 29.17726562 39.246875 28.23828125 38.34375 C2.27509477 13.24541473 2.27509477 13.24541473 0 0 Z " fill="#E2D39B" transform="translate(215,181)"/>
<path d="M0 0 C1.85156701 1.41981148 3.55408258 2.92958802 5.25390625 4.52734375 C7.07103676 6.05991243 8.84165756 7.02237005 11 8 C10.34 9.65 9.68 11.3 9 13 C8.34 13 7.68 13 7 13 C6.67 13.99 6.34 14.98 6 16 C4.03713202 14.56836693 2.07978093 13.13010149 0.125 11.6875 C-0.43058594 11.28337891 -0.98617188 10.87925781 -1.55859375 10.46289062 C-4.2804066 8.44612569 -6.10034104 6.84948844 -8 4 C-7.75 1.875 -7.75 1.875 -7 0 C-4.14256951 -1.42871525 -3.0411049 -1.01370163 0 0 Z " fill="#E9D2A0" transform="translate(276,227)"/>
<path d="M0 0 C1.9375 0.75 1.9375 0.75 4 2 C5.60954948 6.62658105 5.18420453 11.60305146 5.1875 16.4375 C5.19974609 17.37916016 5.21199219 18.32082031 5.22460938 19.29101562 C5.24267687 27.82489799 5.24267687 27.82489799 3 32 C0.69 32 -1.62 32 -4 32 C-3.34 30.68 -2.68 29.36 -2 28 C-2.66 27.34 -3.32 26.68 -4 26 C-3.71125 25.46375 -3.4225 24.9275 -3.125 24.375 C0.7157381 16.26677513 0.39105922 8.75538152 0 0 Z " fill="#DDC188" transform="translate(173,65)"/>
<path d="M0 0 C6.03331362 4.98404168 11.5184171 10.41915303 17 16 C16.67 14.68 16.34 13.36 16 12 C20.45218366 15.17124814 24.58401767 18.4980979 28.5625 22.25 C36.20443276 29.25114958 45.09663188 34.74277311 54 40 C53.01 40.495 53.01 40.495 52 41 C50.34277344 40.35424805 50.34277344 40.35424805 48.359375 39.26171875 C47.62541504 38.85896729 46.89145508 38.45621582 46.13525391 38.04125977 C44.95455322 37.37114868 44.95455322 37.37114868 43.75 36.6875 C42.94095215 36.23109131 42.1319043 35.77468262 41.29833984 35.30444336 C28.9326583 28.21031887 18.23251032 19.89339254 8 10 C7.16726562 9.20722656 6.33453125 8.41445312 5.4765625 7.59765625 C1.39869323 3.64140764 1.39869323 3.64140764 0 2 C0 1.34 0 0.68 0 0 Z " fill="#06120C" transform="translate(237,209)"/>
<path d="M0 0 C0.33 0 0.66 0 1 0 C1 9.57 1 19.14 1 29 C-1.64 29 -4.28 29 -7 29 C-5.83645906 18.85809088 -3.24276103 9.64164444 0 0 Z " fill="#00542A" transform="translate(358,105)"/>
<path d="M0 0 C8.55201116 1.32703621 15.44593101 4.98119232 23 9 C22.67 10.98 22.34 12.96 22 15 C7.1875 10.44230769 7.1875 10.44230769 3 4 C2.4225 3.236875 1.845 2.47375 1.25 1.6875 C0.8375 1.130625 0.425 0.57375 0 0 Z " fill="#F2DEAE" transform="translate(147,38)"/>
<path d="M0 0 C1.08539063 0.40992187 2.17078125 0.81984375 3.2890625 1.2421875 C4.73435269 1.78651757 6.17966644 2.33078509 7.625 2.875 C8.69427734 3.27912109 8.69427734 3.27912109 9.78515625 3.69140625 C13.83148122 5.2134184 17.88737656 6.66372172 22 8 C23.98 6.02 25.96 4.04 28 2 C28.66 2.33 29.32 2.66 30 3 C28.87811441 4.14888283 27.75238316 5.29401137 26.625 6.4375 C25.99851562 7.07558594 25.37203125 7.71367188 24.7265625 8.37109375 C23 10 23 10 21 11 C21.33 14.3 21.66 17.6 22 21 C20 18 20 18 19.8125 15.99609375 C19.10414863 13.62078689 19.10414863 13.62078689 15.875 12.47265625 C13.93246488 11.74019208 11.97781672 11.05483629 10.015625 10.37695312 C8.125 9.66015625 8.125 9.66015625 5 8 C4.0625 5.30859375 4.0625 5.30859375 4 3 C2.68 2.67 1.36 2.34 0 2 C0 1.34 0 0.68 0 0 Z " fill="#072417" transform="translate(69,96)"/>
<path d="M0 0 C7.81128048 7.59749807 7.81128048 7.59749807 8.1328125 13.39453125 C7.70080718 19.0192405 6.20194098 23.83022553 4 29 C2.68776504 25.06329512 3.75703744 22.87511856 5 19 C3.68 19 2.36 19 1 19 C-0.65497356 15.69005287 -0.10084335 12.00877 -0.0625 8.375 C-0.05798828 7.57320313 -0.05347656 6.77140625 -0.04882812 5.9453125 C-0.03703168 3.96350994 -0.01909605 1.98174567 0 0 Z " fill="#E1C78E" transform="translate(187,111)"/>
<path d="M0 0 C0.66 0.33 1.32 0.66 2 1 C1.5875 1.55945313 1.175 2.11890625 0.75 2.6953125 C-4.39601277 9.83999987 -8.73538887 17.31262305 -13 25 C-13.66 23.68 -14.32 22.36 -15 21 C-15.99 21.33 -16.98 21.66 -18 22 C-20.6875 21.5625 -20.6875 21.5625 -23 21 C-23 20.67 -23 20.34 -23 20 C-20.69 20 -18.38 20 -16 20 C-15.74476562 19.29488281 -15.48953125 18.58976562 -15.2265625 17.86328125 C-13.88449478 14.7303652 -12.23270133 12.04285575 -10.375 9.1875 C-9.74335937 8.21167969 -9.11171875 7.23585937 -8.4609375 6.23046875 C-7.73777344 5.12638672 -7.73777344 5.12638672 -7 4 C-6.67 4.66 -6.34 5.32 -6 6 C-5.195625 5.195625 -4.39125 4.39125 -3.5625 3.5625 C-2.375 2.375 -1.1875 1.1875 0 0 Z " fill="#0A1E13" transform="translate(102,143)"/>
<path d="M0 0 C5.28 0.66 10.56 1.32 16 2 C16 2.33 16 2.66 16 3 C15.195625 3.12375 14.39125 3.2475 13.5625 3.375 C12.2940625 3.684375 12.2940625 3.684375 11 4 C9.99059621 6.01880758 9.42793326 7.7890115 9 10 C10.12479771 11.34365826 10.12479771 11.34365826 13.046875 11.2109375 C17.4654651 10.97516293 21.08040723 10.0096782 25.25 8.625 C25.95640625 8.40328125 26.6628125 8.1815625 27.390625 7.953125 C30.60703374 6.91753885 33.17174694 5.88550204 36 4 C35.4765625 5.83203125 35.4765625 5.83203125 34 8 C31.417691 9.09615176 29.05363001 9.93155269 26.375 10.6875 C25.68792969 10.89955078 25.00085938 11.11160156 24.29296875 11.33007812 C22.20643543 11.95055755 20.11617498 12.49033245 18 13 C16.95344238 13.27239502 16.95344238 13.27239502 15.88574219 13.55029297 C13.8203125 13.97265625 13.8203125 13.97265625 10 14 C7.03125 11.796875 7.03125 11.796875 4.5 8.75 C3.21609375 7.25726563 3.21609375 7.25726563 1.90625 5.734375 C0 3 0 3 0 0 Z " fill="#E2C78D" transform="translate(148,148)"/>
<path d="M0 0 C1.67509176 0.05840514 3.35022246 0.11570404 5.02539062 0.171875 C9.07998805 0.31019739 13.13376738 0.46337454 17.1875 0.625 C17.1875 0.955 17.1875 1.285 17.1875 1.625 C13.87657291 1.99499418 10.56367103 2.34302045 7.25 2.6875 C5.86071289 2.8431543 5.86071289 2.8431543 4.44335938 3.00195312 C-0.90941562 3.54662146 -5.64335434 3.61231597 -10.93969727 2.58374023 C-12.95543079 2.43203456 -12.95543079 2.43203456 -14.56225586 4.10180664 C-14.97483643 4.60446045 -15.38741699 5.10711426 -15.8125 5.625 C-16.4725 4.635 -17.1325 3.645 -17.8125 2.625 C-18.8025 2.295 -19.7925 1.965 -20.8125 1.625 C-20.4825 2.945 -20.1525 4.265 -19.8125 5.625 C-24.1302458 5.11702991 -27.84552114 4.42817221 -31.8125 2.625 C-31.8125 2.295 -31.8125 1.965 -31.8125 1.625 C-21.07520274 -0.5923678 -10.89007766 -0.43824996 0 0 Z " fill="#E8CD90" transform="translate(120.8125,194.375)"/>
<path d="M0 0 C1.66611905 -0.042721 3.33382885 -0.04063832 5 0 C5.33 0.33 5.66 0.66 6 1 C8.26437801 0.99097857 10.51267599 0.86737625 12.7734375 0.7421875 C15.57060391 1.06606993 16.13226041 1.97372549 18 4 C20.03077684 4.98628417 20.03077684 4.98628417 22.1875 5.6875 C22.90292969 5.93886719 23.61835938 6.19023437 24.35546875 6.44921875 C24.89816406 6.63097656 25.44085938 6.81273437 26 7 C25.67 7.99 25.34 8.98 25 10 C18.30563004 9.52800371 13.05283315 8.14411108 6.9375 5.4375 C5.78217773 4.9434668 5.78217773 4.9434668 4.60351562 4.43945312 C2.73106685 3.63697508 0.86483582 2.82001391 -1 2 C-0.67 1.34 -0.34 0.68 0 0 Z " fill="#0A291A" transform="translate(241,252)"/>
<path d="M0 0 C4.42522359 0.50096871 8.75646776 1.13276545 13.125 2 C19.70689897 3.24047041 26.32101177 3.62948678 33 4 C33 4.33 33 4.66 33 5 C28.12651177 5.79348625 23.47059816 6.11813526 18.53515625 6.09765625 C17.51789711 6.09553383 17.51789711 6.09553383 16.48008728 6.09336853 C14.34084422 6.08782745 12.20171075 6.07528653 10.0625 6.0625 C8.60091298 6.05747736 7.13932431 6.0529158 5.67773438 6.04882812 C2.11845474 6.03787745 -1.44076191 6.02065445 -5 6 C-5 5.67 -5 5.34 -5 5 C-1.535 4.505 -1.535 4.505 2 4 C1.34 2.68 0.68 1.36 0 0 Z " fill="#F2EAB8" transform="translate(353,270)"/>
<path d="M0 0 C4.60395853 1.28482564 7.33206904 2.99896558 11 6 C13.64039046 7.58667531 16.30461655 9.12055765 18.98828125 10.6328125 C19.98408203 11.30957031 19.98408203 11.30957031 21 12 C21 12.66 21 13.32 21 14 C18 15 18 15 14.375 13.375 C12.90980562 12.59610485 11.45195063 11.80331289 10 11 C9.16726563 10.54367187 8.33453125 10.08734375 7.4765625 9.6171875 C5.31157048 8.42200263 3.1532466 7.21618558 1 6 C1 5.01 1 4.02 1 3 C0.01 2.67 -0.98 2.34 -2 2 C-1.34 1.34 -0.68 0.68 0 0 Z " fill="#D9BE8A" transform="translate(276,247)"/>
<path d="M0 0 C0.33 0 0.66 0 1 0 C1.02721831 3.0000624 1.04694378 5.99987256 1.0625 9 C1.07087891 9.83917969 1.07925781 10.67835937 1.08789062 11.54296875 C1.10545329 16.07413757 0.89351516 20.412643 0.25610352 24.91015625 C-0.25586794 29.08792138 -0.37619266 33.29739519 -0.5625 37.5 C-0.60568359 38.4178125 -0.64886719 39.335625 -0.69335938 40.28125 C-0.79833456 42.52072061 -0.90049248 44.76028092 -1 47 C-1.33 47 -1.66 47 -2 47 C-1.98428955 46.1028125 -1.9685791 45.205625 -1.95239258 44.28125 C-1.90094359 40.91904804 -1.8634958 37.5572708 -1.83520508 34.19482422 C-1.82021583 32.74586339 -1.79981729 31.29694717 -1.77368164 29.84814453 C-1.39498818 20.36819489 -1.39498818 20.36819489 -3.65234375 11.28125 C-5 8 -5 8 -4.234375 5.46875 C-3.74453125 4.8190625 -3.2546875 4.169375 -2.75 3.5 C-2.27046875 2.8296875 -1.7909375 2.159375 -1.296875 1.46875 C-0.86890625 0.9840625 -0.4409375 0.499375 0 0 Z " fill="#E6CD91" transform="translate(208,110)"/>
<path d="M0 0 C-0.165 0.763125 -0.33 1.52625 -0.5 2.3125 C-1.09145396 5.03596236 -1.09145396 5.03596236 -1 8 C-2.32 8 -3.64 8 -5 8 C-5 7.34 -5 6.68 -5 6 C-5.99 6 -6.98 6 -8 6 C-8 7.32 -8 8.64 -8 10 C-10 9 -10 9 -11 6 C-13.67642489 3.81509993 -13.67642489 3.81509993 -16 4 C-15.67 3.01 -15.34 2.02 -15 1 C-13.43784452 0.83013455 -11.8752548 0.66426036 -10.3125 0.5 C-9.44238281 0.4071875 -8.57226562 0.314375 -7.67578125 0.21875 C-5.10276661 0.00840136 -2.58015636 -0.03719144 0 0 Z " fill="#D4B780" transform="translate(83,151)"/>
<path d="M0 0 C0.61488281 0.08378906 1.22976563 0.16757812 1.86328125 0.25390625 C3.07564453 0.40666016 3.07564453 0.40666016 4.3125 0.5625 C5.11300781 0.66691406 5.91351563 0.77132813 6.73828125 0.87890625 C9.16817116 1.14755178 9.16817116 1.14755178 12 0 C14.06542969 0.49731445 14.06542969 0.49731445 16.421875 1.36328125 C17.28296875 1.67330078 18.1440625 1.98332031 19.03125 2.30273438 C20.37703125 2.80256836 20.37703125 2.80256836 21.75 3.3125 C23.51494573 3.95629234 25.28056009 4.59825494 27.046875 5.23828125 C28.30854492 5.69581787 28.30854492 5.69581787 29.59570312 6.16259766 C32.70099125 7.2441511 35.82536128 8.14562319 39 9 C35.17952555 10.40412101 32.35931127 9.59671526 28.4765625 8.63671875 C27.208125 8.32669922 25.9396875 8.01667969 24.6328125 7.69726562 C23.64522949 7.44843628 23.64522949 7.44843628 22.63769531 7.19458008 C20.64082561 6.69148712 18.64121275 6.20096505 16.640625 5.71289062 C11.01469297 4.32352506 5.48030985 2.89343407 0 1 C0 0.67 0 0.34 0 0 Z " fill="#E0CF91" transform="translate(258,265)"/>
<path d="M0 0 C0.86625 0.5259375 0.86625 0.5259375 1.75 1.0625 C3.9202442 2.24259366 3.9202442 2.24259366 5.9375 1.4375 C8 1 8 1 10.75 2.4375 C11.4925 2.953125 12.235 3.46875 13 4 C12.01 4.495 12.01 4.495 11 5 C10.34 4.67 9.68 4.34 9 4 C9 4.66 9 5.32 9 6 C9.66 6.33 10.32 6.66 11 7 C10.67 7.66 10.34 8.32 10 9 C10.66 9.33 11.32 9.66 12 10 C4.03867336 9.50666993 4.03867336 9.50666993 0.4375 7.75 C-1 6 -1 6 -1.3125 3.375 C-1 1 -1 1 0 0 Z " fill="#D1B57D" transform="translate(192,233)"/>
<path d="M0 0 C0.17015625 0.78503906 0.3403125 1.57007813 0.515625 2.37890625 C1.94892972 8.59243468 3.48521375 13.66722086 7 19 C6.01 20.32 5.02 21.64 4 23 C-0.20182976 17.59764745 -4 9.95840282 -4 3 C-1.34615385 0 -1.34615385 0 0 0 Z " fill="#0F2215" transform="translate(50,133)"/>
<path d="M0 0 C0.66 0 1.32 0 2 0 C5 6.625 5 6.625 5 10 C4.05125 9.95875 3.1025 9.9175 2.125 9.875 C-1.10244856 9.65026182 -1.10244856 9.65026182 -3 12 C-5 11.9375 -5 11.9375 -7 11 C-8.25 8.4375 -8.25 8.4375 -9 6 C-7.35 5.67 -5.7 5.34 -4 5 C-4 5.66 -4 6.32 -4 7 C-3.01 7 -2.02 7 -1 7 C-1.66 5.02 -2.32 3.04 -3 1 C-2.01 1 -1.02 1 0 1 C0 0.67 0 0.34 0 0 Z " fill="#D7B881" transform="translate(206,168)"/>
<path d="M0 0 C0.33 0.66 0.66 1.32 1 2 C2.485 2.4640625 2.485 2.4640625 4 2.9375 C4.99 3.288125 5.98 3.63875 7 4 C7.33 4.99 7.66 5.98 8 7 C8.99 7.33 9.98 7.66 11 8 C10.649375 8.5775 10.29875 9.155 9.9375 9.75 C8.81715862 12.4388193 8.9936559 13.31641572 10 16 C10.63654342 17.3479743 11.29605388 18.68596724 12 20 C8.01860319 17.09427882 5.37179331 14.08445101 2.625 10 C1.91601562 8.96875 1.20703125 7.9375 0.4765625 6.875 C-1 4 -1 4 -0.7265625 1.625 C-0.36691406 0.820625 -0.36691406 0.820625 0 0 Z " fill="#DCC38B" transform="translate(90,164)"/>
<path d="M0 0 C-3.28942366 1.33891561 -6.58189109 2.67017703 -9.875 4 C-10.81214844 4.3815625 -11.74929687 4.763125 -12.71484375 5.15625 C-13.61074219 5.5171875 -14.50664062 5.878125 -15.4296875 6.25 C-16.67081299 6.75273438 -16.67081299 6.75273438 -17.93701172 7.265625 C-20 8 -20 8 -22 8 C-26.65909091 3.68181818 -26.65909091 3.68181818 -28 1 C-26.37585622 0.80522261 -24.75063577 0.61940542 -23.125 0.4375 C-22.22007812 0.33308594 -21.31515625 0.22867188 -20.3828125 0.12109375 C-18 0 -18 0 -16 1 C-16 1.99 -16 2.98 -16 4 C-14.64455078 3.44119141 -14.64455078 3.44119141 -13.26171875 2.87109375 C-12.08222656 2.39800781 -10.90273437 1.92492187 -9.6875 1.4375 C-8.51574219 0.96183594 -7.34398437 0.48617187 -6.13671875 -0.00390625 C-3 -1 -3 -1 0 0 Z " fill="#DEC48B" transform="translate(172,98)"/>
<path d="M0 0 C1.9375 0.75 1.9375 0.75 4 2 C5.05831095 5.00193571 5.11693471 7.82270785 5.09765625 10.984375 C5.09282227 12.38623047 5.09282227 12.38623047 5.08789062 13.81640625 C5.07951172 14.78449219 5.07113281 15.75257812 5.0625 16.75 C5.05798828 17.73355469 5.05347656 18.71710938 5.04882812 19.73046875 C5.03706483 22.15370791 5.02062684 24.57682273 5 27 C4.67 27 4.34 27 4 27 C3.67 24.36 3.34 21.72 3 19 C2.34 20.32 1.68 21.64 1 23 C0.34 22.67 -0.32 22.34 -1 22 C-0.83628906 21.18273437 -0.67257813 20.36546875 -0.50390625 19.5234375 C0.06974606 15.51231824 0.11001604 11.66751879 0.0625 7.625 C0.05798828 6.88894531 0.05347656 6.15289062 0.04882812 5.39453125 C0.03715142 3.59631842 0.01922011 1.79814803 0 0 Z " fill="#B4A675" transform="translate(173,65)"/>
<path d="M0 0 C0.66 0.33 1.32 0.66 2 1 C1.2575 1.721875 0.515 2.44375 -0.25 3.1875 C-2.69290515 5.68592573 -4.8681047 8.23643202 -7 11 C-9.64 10.34 -12.28 9.68 -15 9 C-15 8.01 -15 7.02 -15 6 C-12.54524486 4.96971956 -10.08685649 3.95054496 -7.625 2.9375 C-6.57699219 2.49567383 -6.57699219 2.49567383 -5.5078125 2.04492188 C-3.69495092 1.30408902 -1.84876857 0.64603036 0 0 Z " fill="#E5DDB2" transform="translate(97,37)"/>
<path d="M0 0 C0.33 0 0.66 0 1 0 C0.67 6.6 0.34 13.2 0 20 C-0.33 20 -0.66 20 -1 20 C-1.33 18.35 -1.66 16.7 -2 15 C-2.66 15 -3.32 15 -4 15 C-4 14.34 -4 13.68 -4 13 C-4.99 13.33 -5.98 13.66 -7 14 C-8.21869929 16.50447516 -8.21869929 16.50447516 -9 19 C-9.96661363 15.87819599 -9.98988909 13.47916205 -9.5625 10.25 C-9.46066406 9.45078125 -9.35882813 8.6515625 -9.25390625 7.828125 C-9.17011719 7.22484375 -9.08632812 6.6215625 -9 6 C-7.02 6.495 -7.02 6.495 -5 7 C-5 8.65 -5 10.3 -5 12 C-4.34 12 -3.68 12 -3 12 C-1.19682779 8.03302114 -0.50797009 4.3177458 0 0 Z " fill="#CFB47E" transform="translate(206,126)"/>
<path d="M0 0 C1.32 0.99 2.64 1.98 4 3 C2.98679687 3.58007812 2.98679687 3.58007812 1.953125 4.171875 C1.06109375 4.69265625 0.1690625 5.2134375 -0.75 5.75 C-1.63171875 6.26046875 -2.5134375 6.7709375 -3.421875 7.296875 C-5.96537343 8.97712548 -7.92902925 10.77419032 -10 13 C-11.9375 12.1875 -11.9375 12.1875 -14 11 C-14.33 10.01 -14.66 9.02 -15 8 C-14.01 7.608125 -13.02 7.21625 -12 6.8125 C-7.71265793 4.9888453 -3.88490376 2.55293676 0 0 Z " fill="#0F2015" transform="translate(77,53)"/>
<path d="M0 0 C0.33 0.66 0.66 1.32 1 2 C5.455 1.505 5.455 1.505 10 1 C10.66 2.98 11.32 4.96 12 7 C4.08 7.495 4.08 7.495 -4 8 C-3.34 7.34 -2.68 6.68 -2 6 C-2 5.01 -2 4.02 -2 3 C-1.34 3 -0.68 3 0 3 C0 2.01 0 1.02 0 0 Z " fill="#D8C897" transform="translate(344,268)"/>
<path d="M0 0 C1.62723299 0.45034123 3.25173664 0.91055354 4.875 1.375 C5.77992188 1.63023437 6.68484375 1.88546875 7.6171875 2.1484375 C10 3 10 3 12 5 C10.906875 4.979375 9.81375 4.95875 8.6875 4.9375 C5.05615809 4.81455548 5.05615809 4.81455548 2 6 C2 6.99 2 7.98 2 9 C3.65 9 5.3 9 7 9 C7 9.33 7 9.66 7 10 C3.04 10 -0.92 10 -5 10 C-4.01 9.01 -3.02 8.02 -2 7 C-1.25613932 4.69011685 -0.57809297 2.35684056 0 0 Z " fill="#E7D5A3" transform="translate(340,265)"/>
<path d="M0 0 C0.9075 0.33 1.815 0.66 2.75 1 C6.07045807 2.19605723 6.07045807 2.19605723 10 2 C10.66 2.66 11.32 3.32 12 4 C12.556875 4.45375 13.11375 4.9075 13.6875 5.375 C14.120625 5.91125 14.55375 6.4475 15 7 C14.6875 9.1875 14.6875 9.1875 14 11 C10.78054097 9.92684699 7.94669452 8.48769112 4.9375 6.9375 C2.86589825 5.88388051 2.86589825 5.88388051 0 5 C0 3.35 0 1.7 0 0 Z " fill="#D2B67E" transform="translate(222,247)"/>
<path d="M0 0 C0.66 0.33 1.32 0.66 2 1 C1.34 2.32 0.68 3.64 0 5 C0.66 5.33 1.32 5.66 2 6 C-3.11766132 10.02879721 -7.73519555 12.25267359 -14 14 C-9.72706118 8.76564995 -5.18419194 4.32893185 0 0 Z " fill="#F3E6B8" transform="translate(71,50)"/>
<path d="M0 0 C-1 3 -1 3 -3.765625 4.38671875 C-4.91546875 4.81597656 -6.0653125 5.24523437 -7.25 5.6875 C-8.95929688 6.34298828 -8.95929688 6.34298828 -10.703125 7.01171875 C-13.70526195 7.91164843 -15.90114731 8.21552171 -19 8 C-16.08235 6.0549 -14.37462715 5.54723683 -11 5 C-11 4.34 -11 3.68 -11 3 C-11.99 2.67 -12.98 2.34 -14 2 C-8.77729131 -0.66464729 -5.9180497 -1.32854177 0 0 Z " fill="#071A10" transform="translate(172,101)"/>
<path d="M0 0 C4.99275057 1.27721526 7.57611908 3.17330957 11 7 C8.00637527 8.02396314 5.17075866 8.84623411 2 9 C-1.0625 6.625 -1.0625 6.625 -3 4 C-2.01 4 -1.02 4 0 4 C-0.33 3.01 -0.66 2.02 -1 1 C-0.67 0.67 -0.34 0.34 0 0 Z " fill="#D9BD87" transform="translate(255,230)"/>
<path d="M0 0 C1.46179688 0.87011719 1.46179688 0.87011719 2.953125 1.7578125 C4.43039063 2.62019531 4.43039063 2.62019531 5.9375 3.5 C6.68515625 3.95632812 7.4328125 4.41265625 8.203125 4.8828125 C6.375 5.47265625 6.375 5.47265625 4.203125 5.8828125 C1.453125 4.4453125 1.453125 4.4453125 -0.796875 2.8828125 C-0.71922041 4.79120152 -0.71922041 4.79120152 0.203125 6.8828125 C2.72899126 8.67943907 2.72899126 8.67943907 5.765625 10.1328125 C7.28349609 10.91398438 7.28349609 10.91398438 8.83203125 11.7109375 C9.61449219 12.09765625 10.39695313 12.484375 11.203125 12.8828125 C8.203125 13.8828125 8.203125 13.8828125 5.1015625 12.51953125 C3.92135651 11.88025301 2.74701836 11.23004816 1.578125 10.5703125 C0.6809375 10.08788086 0.6809375 10.08788086 -0.234375 9.59570312 C-4.65928108 7.15800034 -4.65928108 7.15800034 -5.796875 4.8828125 C-5.136875 4.8828125 -4.476875 4.8828125 -3.796875 4.8828125 C-4.786875 3.5628125 -5.776875 2.2428125 -6.796875 0.8828125 C-4.0252534 -1.11011541 -3.24990705 -1.29814723 0 0 Z " fill="#071C11" transform="translate(216.796875,233.1171875)"/>
<path d="M0 0 C0.804375 0.12375 1.60875 0.2475 2.4375 0.375 C3.0975 1.365 3.7575 2.355 4.4375 3.375 C3.4475 3.87 3.4475 3.87 2.4375 4.375 C2.78536708 6.35036745 2.78536708 6.35036745 3.4375 8.375 C4.0975 8.705 4.7575 9.035 5.4375 9.375 C5.4375 10.035 5.4375 10.695 5.4375 11.375 C-0.22960699 10.05706814 -2.22687233 7.88790803 -5.5625 3.375 C-3.76123295 1.09971531 -2.9258843 0.42817819 0 0 Z " fill="#EAD3A2" transform="translate(291.5625,240.625)"/>
<path d="M0 0 C3.70851296 1.68323283 6.93932636 3.96958393 10.25 6.3125 C15.07980097 9.69723867 19.95984927 12.93637897 25 16 C24.34 16.33 23.68 16.66 23 17 C21.23168945 16.27490234 21.23168945 16.27490234 19.11328125 15.0859375 C18.33919922 14.65410156 17.56511719 14.22226563 16.76757812 13.77734375 C15.95740234 13.31457031 15.14722656 12.85179687 14.3125 12.375 C13.52166016 11.93542969 12.73082031 11.49585938 11.91601562 11.04296875 C7.04372349 8.29903544 2.49118288 5.33081033 -2 2 C-1.34 1.34 -0.68 0.68 0 0 Z " fill="#131C14" transform="translate(266,233)"/>
<path d="M0 0 C2.60973057 1.30486528 3.30411284 2.98083832 4.40234375 5.61328125 C5.65747654 10.62560892 5.20817853 15.87263996 5 21 C1.98508528 18.21749841 0.01858249 15.60519695 -1.8125 11.9375 C-2.25207031 11.08027344 -2.69164062 10.22304687 -3.14453125 9.33984375 C-4 7 -4 7 -3 4 C-1.35 7.3 0.3 10.6 2 14 C1.27671091 6.9575127 1.27671091 6.9575127 0 0 Z " fill="#F1EBBE" transform="translate(48,146)"/>
<path d="M0 0 C2 0 2 0 4.625 2.5 C5.40875 3.325 6.1925 4.15 7 5 C7.33 4.34 7.66 3.68 8 3 C10.97 6.3 13.94 9.6 17 13 C16.01 13 15.02 13 14 13 C11.8125 10.5 11.8125 10.5 10 8 C9.67 8.33 9.34 8.66 9 9 C10.98 11.64 12.96 14.28 15 17 C14.34 17.66 13.68 18.32 13 19 C12.61199219 18.30261719 12.22398437 17.60523438 11.82421875 16.88671875 C9.37480436 13.01066472 6.40751567 9.64710078 3.40820312 6.19726562 C0 2.20680689 0 2.20680689 0 0 Z " fill="#0E1B11" transform="translate(140,147)"/>
<path d="M0 0 C1.55654297 0.25716797 1.55654297 0.25716797 3.14453125 0.51953125 C6.00543655 1.14753485 8.51018907 2.01462996 11.1875 3.1875 C11.1875 4.1775 11.1875 5.1675 11.1875 6.1875 C9.24933265 6.0733134 7.31194901 5.94576577 5.375 5.8125 C4.29605469 5.74289062 3.21710938 5.67328125 2.10546875 5.6015625 C-2.00758322 5.01791657 -4.57612125 2.64268388 -7.8125 0.1875 C-4.97372419 -1.2318879 -3.10420666 -0.53204035 0 0 Z " fill="#D7BD83" transform="translate(256.8125,260.8125)"/>
<path d="M0 0 C2.560881 3.24640915 4.62476717 6.66940716 6.6875 10.25 C7.31011719 11.32765625 7.93273437 12.4053125 8.57421875 13.515625 C9.04472656 14.33546875 9.51523438 15.1553125 10 16 C8.625 17.5 8.625 17.5 7 19 C6.34 19 5.68 19 5 19 C4.15919981 16.58570231 3.32718598 14.16896007 2.5 11.75 C2.14228516 10.72712891 2.14228516 10.72712891 1.77734375 9.68359375 C0.60578713 6.23586997 0 3.68297096 0 0 Z " fill="#E3DDB2" transform="translate(226,165)"/>
<path d="M0 0 C1.46015291 0.28241641 2.91809793 0.57626614 4.375 0.875 C5.18710938 1.03742187 5.99921875 1.19984375 6.8359375 1.3671875 C9.68429447 2.20010055 10.68926636 3.44758464 12.125 6 C13 8 13 8 13 10 C9.75 9.875 9.75 9.875 6 9 C3.6875 6.125 3.6875 6.125 2 3 C1.34 2.01 0.68 1.02 0 0 Z " fill="#EDD6A6" transform="translate(147,38)"/>
<path d="M0 0 C5.47932789 1.54545146 10.11429181 4.15543212 15 7 C12.82728593 9.17271407 12.00530383 9.70880968 9 10 C6.89453125 8.92578125 6.89453125 8.92578125 4.8125 7.3125 C4.11769531 6.79300781 3.42289062 6.27351562 2.70703125 5.73828125 C0.82127132 3.8179994 0.38349111 2.62720032 0 0 Z " fill="#EDDBAB" transform="translate(281,246)"/>
<path d="M0 0 C0.33 0.66 0.66 1.32 1 2 C2.65 1.67 4.3 1.34 6 1 C5.01 2.485 5.01 2.485 4 4 C4.66 4.66 5.32 5.32 6 6 C-1.47394574 6.37369729 -7.82140651 5.04061541 -15 3 C-11.87819599 2.03338637 -9.47916205 2.01011091 -6.25 2.4375 C-5.05117188 2.59025391 -5.05117188 2.59025391 -3.828125 2.74609375 C-3.22484375 2.82988281 -2.6215625 2.91367187 -2 3 C-2 2.34 -2 1.68 -2 1 C-1.34 0.67 -0.68 0.34 0 0 Z " fill="#E4D8A7" transform="translate(328,268)"/>
<path d="M0 0 C4.60125265 1.31464361 8.22421843 3.03331448 12 6 C12 6.99 12 7.98 12 9 C12.7734375 9.99 12.7734375 9.99 13.5625 11 C14.036875 11.66 14.51125 12.32 15 13 C14.67 13.99 14.34 14.98 14 16 C13.525625 15.13375 13.05125 14.2675 12.5625 13.375 C9.3684603 8.52052088 4.11595244 5.55797622 -1 3 C-0.67 2.01 -0.34 1.02 0 0 Z " fill="#0D1B11" transform="translate(163,53)"/>
<path d="M0 0 C4.75481646 0.57634139 7.97048212 2.55068521 12 5 C11.01 5.495 11.01 5.495 10 6 C9.01 5.67 8.02 5.34 7 5 C7.33 6.32 7.66 7.64 8 9 C9.32 9.33 10.64 9.66 12 10 C9 11 9 11 6.95703125 10.22265625 C6.24933594 9.83980469 5.54164063 9.45695313 4.8125 9.0625 C4.09707031 8.68222656 3.38164062 8.30195313 2.64453125 7.91015625 C1.83048828 7.45962891 1.83048828 7.45962891 1 7 C1 5.68 1 4.36 1 3 C1.99 3 2.98 3 4 3 C2.68 2.01 1.36 1.02 0 0 Z " fill="#02190E" transform="translate(229,242)"/>
<path d="M0 0 C1.18078125 0.56589844 2.3615625 1.13179687 3.578125 1.71484375 C5.13532537 2.45592103 6.6926221 3.19679588 8.25 3.9375 C9.02730469 4.31068359 9.80460938 4.68386719 10.60546875 5.06835938 C11.35957031 5.42607422 12.11367187 5.78378906 12.890625 6.15234375 C13.58188477 6.48226318 14.27314453 6.81218262 14.98535156 7.15209961 C16.976973 7.99030868 18.902797 8.49798679 21 9 C22.3479743 9.63654342 23.68596724 10.29605388 25 11 C25 11.99 25 12.98 25 14 C21.44594214 14 19.98303423 13.08885136 16.89453125 11.375 C15.91162109 10.83359375 14.92871094 10.2921875 13.91601562 9.734375 C12.89185547 9.16203125 11.86769531 8.5896875 10.8125 8 C9.77673828 7.42765625 8.74097656 6.8553125 7.67382812 6.265625 C5.11271666 4.84934216 2.55499454 3.42727936 0 2 C0 1.34 0 0.68 0 0 Z " fill="#F0E8BC" transform="translate(154,46)"/>
<path d="M0 0 C2.97 0.495 2.97 0.495 6 1 C6.33 2.32 6.66 3.64 7 5 C6.01 5 5.02 5 4 5 C3.67 5.66 3.34 6.32 3 7 C3.66 7 4.32 7 5 7 C4 9 4 9 2.125 9.8125 C0 10 0 10 -1.75 8.5625 C-2.1625 8.046875 -2.575 7.53125 -3 7 C-2.34 7 -1.68 7 -1 7 C-1 6.34 -1 5.68 -1 5 C-1.66 4.67 -2.32 4.34 -3 4 C-2.34 4 -1.68 4 -1 4 C-0.67 2.68 -0.34 1.36 0 0 Z " fill="#D2B67E" transform="translate(184,225)"/>
<path d="M0 0 C0.66 0.33 1.32 0.66 2 1 C0.87811441 2.14888283 -0.24761684 3.29401137 -1.375 4.4375 C-2.00148438 5.07558594 -2.62796875 5.71367188 -3.2734375 6.37109375 C-5 8 -5 8 -7 9 C-6.67 12.3 -6.34 15.6 -6 19 C-8 16 -8 16 -8.3125 13.9375 C-8.85095021 11.7023933 -8.85095021 11.7023933 -11.5625 10.75 C-12.366875 10.5025 -13.17125 10.255 -14 10 C-14 9.34 -14 8.68 -14 8 C-13.01 7.67 -12.02 7.34 -11 7 C-11.66 6.34 -12.32 5.68 -13 5 C-11.453125 5.433125 -11.453125 5.433125 -9.875 5.875 C-6.16109623 6.38415958 -6.16109623 6.38415958 -4.19921875 4.73046875 C-2.72247053 3.22552486 -1.35305226 1.61706246 0 0 Z " fill="#06130B" transform="translate(97,98)"/>
<path d="M0 0 C5.26122171 1.51031916 9.67232586 3.90374191 14.375 6.625 C15.11105469 7.04523438 15.84710938 7.46546875 16.60546875 7.8984375 C18.4063765 8.92752764 20.20357318 9.96310756 22 11 C21.01 11.495 21.01 11.495 20 12 C17.79296875 11.0390625 17.79296875 11.0390625 15.1875 9.625 C11.73905473 7.75730952 8.84781115 6.70017547 5 6 C2.97762948 5.04605164 0.9717304 4.05464649 -1 3 C-0.67 2.01 -0.34 1.02 0 0 Z " fill="#ECE1B1" transform="translate(310,251)"/>
<path d="M0 0 C2.97 0.495 2.97 0.495 6 1 C7.2077558 4.62326739 6.54311128 5.64146369 5 9 C5.66 9.33 6.32 9.66 7 10 C2.375 12.125 2.375 12.125 -1 11 C-1 8 -1 8 1 5.8125 C1.66 5.214375 2.32 4.61625 3 4 C3.66 4.33 4.32 4.66 5 5 C3.74458443 2.48916886 2.49936512 2.12874554 0 1 C0 0.67 0 0.34 0 0 Z " fill="#E7D6A4" transform="translate(333,263)"/>
<path d="M0 0 C0.33 0.66 0.66 1.32 1 2 C0.69320312 2.54140625 0.38640625 3.0828125 0.0703125 3.640625 C-1.44001841 6.96996759 -1.21296771 10.17039072 -1.125 13.75 C-1.11597656 14.44738281 -1.10695312 15.14476562 -1.09765625 15.86328125 C-1.07419888 17.57566958 -1.03833104 19.28788004 -1 21 C-1.99 21.33 -2.98 21.66 -4 22 C-5.28317892 18.15046324 -5.06643637 15.05261865 -5 11 C-4.67 11 -4.34 11 -4 11 C-3.566875 9.1128125 -3.566875 9.1128125 -3.125 7.1875 C-2.42696461 4.1460601 -1.79553415 2.69330122 0 0 Z " fill="#030E08" transform="translate(50,114)"/>
<path d="M0 0 C10.55808656 3.07517084 10.55808656 3.07517084 15 5 C14.33333333 6.33333333 13.66666667 7.66666667 13 9 C13.66 9.66 14.32 10.32 15 11 C10.78087253 10.5205537 8.20336822 9.83374881 5 7 C6.65 7.33 8.3 7.66 10 8 C10 7.34 10 6.68 10 6 C6.7 4.35 3.4 2.7 0 1 C0 0.67 0 0.34 0 0 Z " fill="#05140C" transform="translate(256,254)"/>
<path d="M0 0 C2.375 0.6875 2.375 0.6875 5 2 C6.375 4.5 6.375 4.5 7 7 C6.67 7.66 6.34 8.32 6 9 C7.32 9.66 8.64 10.32 10 11 C7.875 11 7.875 11 5 10 C2.74515308 7.50224217 0.85734917 4.80198037 -1 2 C-0.67 1.34 -0.34 0.68 0 0 Z " fill="#DCC48D" transform="translate(54,145)"/>
<path d="M0 0 C1.90271802 3.5399405 3.21985541 7.21654779 4.5625 11 C4.99691406 12.216875 5.43132812 13.43375 5.87890625 14.6875 C6.70452416 17.1269564 7.44174966 19.4910097 8 22 C2.52898506 17.07608655 0.80642396 13.43800055 0.25 6.125 C0.1495532 4.08410371 0.06060735 2.04246762 0 0 Z " fill="#E4CA8E" transform="translate(207,159)"/>
<path d="M0 0 C1.07765625 0.19464844 2.1553125 0.38929688 3.265625 0.58984375 C4.08546875 0.74582031 4.9053125 0.90179688 5.75 1.0625 C3.75 3.0625 3.75 3.0625 0.7109375 3.2578125 C-0.47242188 3.23460937 -1.65578125 3.21140625 -2.875 3.1875 C-4.06351562 3.16945313 -5.25203125 3.15140625 -6.4765625 3.1328125 C-7.39179688 3.10960937 -8.30703125 3.08640625 -9.25 3.0625 C-9.58 2.0725 -9.91 1.0825 -10.25 0.0625 C-6.59606463 -1.20573485 -3.75929974 -0.69465321 0 0 Z " fill="#E2D19E" transform="translate(366.25,271.9375)"/>
<path d="M0 0 C1.70884005 1.62339805 3.37446717 3.29319053 5 5 C5 5.66 5 6.32 5 7 C6.65 7.33 8.3 7.66 10 8 C12 13.625 12 13.625 12 17 C10.17878563 14.92375562 8.3680994 12.83975198 6.5625 10.75 C5.7880957 9.87021484 5.7880957 9.87021484 4.99804688 8.97265625 C4.50498047 8.39902344 4.01191406 7.82539063 3.50390625 7.234375 C3.04830322 6.71069336 2.5927002 6.18701172 2.12329102 5.64746094 C0.85671207 3.78984852 0.41931042 2.19459981 0 0 Z " fill="#E7CD92" transform="translate(207,192)"/>
<path d="M0 0 C3.32604248 1.66302124 3.80042476 4.62976481 5 8 C4.73662813 11.16046246 3.82135204 12.26797194 2 15 C2 12.03 2 9.06 2 6 C1.67 8.64 1.34 11.28 1 14 C0.67 14 0.34 14 0 14 C0 9.38 0 4.76 0 0 Z " fill="#CBD1A4" transform="translate(37,112)"/>
<path d="M0 0 C0 0.33 0 0.66 0 1 C-9.41002278 4.25968109 -9.41002278 4.25968109 -14 5 C-14 4.01 -14 3.02 -14 2 C-8.76579213 -1.27137992 -5.83394389 -1.10643764 0 0 Z " fill="#05120A" transform="translate(93,50)"/>
<path d="M0 0 C0.33 0 0.66 0 1 0 C0.5547115 5.27315333 -0.08373163 10.01770224 -2 15 C-2.99 14.67 -3.98 14.34 -5 14 C-4.67 11.69 -4.34 9.38 -4 7 C-3.01 7 -2.02 7 -1 7 C-0.67 4.69 -0.34 2.38 0 0 Z " fill="#03150D" transform="translate(198,123)"/>
<path d="M0 0 C1.5 1.1875 1.5 1.1875 3 3 C3.1875 5.6875 3.1875 5.6875 3 8 C3.66 8.33 4.32 8.66 5 9 C4.67 11.97 4.34 14.94 4 18 C0.5965383 14.5965383 0.14884531 9.55827869 -0.125 4.8515625 C-0.125 3.23383832 -0.06877709 1.6162615 0 0 Z " fill="#F6EABB" transform="translate(49,126)"/>
<path d="M0 0 C0 1.32 0 2.64 0 4 C-1.65 4.33 -3.3 4.66 -5 5 C-5 4.34 -5 3.68 -5 3 C-6.65 2.67 -8.3 2.34 -10 2 C-5.86678317 -0.75547789 -4.77928863 -1.13193678 0 0 Z " fill="#12281B" transform="translate(177,98)"/>
<path d="M0 0 C1.50559539 1.96382007 2.89131683 3.78263366 4 6 C4.99 6.33 5.98 6.66 7 7 C8.3125 9.375 8.3125 9.375 9 12 C8.01 13.485 8.01 13.485 7 15 C6.0115904 13.44333045 5.03464918 11.87937574 4.0625 10.3125 C3.51722656 9.44238281 2.97195312 8.57226562 2.41015625 7.67578125 C1.02832828 5.05375311 0.41519827 2.91689925 0 0 Z " fill="#E4C98E" transform="translate(196,173)"/>
<path d="M0 0 C4.29 1.65 8.58 3.3 13 5 C12.67 5.66 12.34 6.32 12 7 C10.02 6.34 8.04 5.68 6 5 C6 5.66 6 6.32 6 7 C6.66 7.33 7.32 7.66 8 8 C6.68 7.67 5.36 7.34 4 7 C4 5.68 4 4.36 4 3 C2.68 2.67 1.36 2.34 0 2 C0 1.34 0 0.68 0 0 Z " fill="#09170F" transform="translate(69,96)"/>
<path d="M0 0 C3.44428265 1.44781793 5.36130962 3.27694609 7.75 6.125 C8.36359375 6.84945312 8.9771875 7.57390625 9.609375 8.3203125 C10.29773438 9.15175781 10.29773438 9.15175781 11 10 C7.19654123 10 6.22298985 8.86213669 3.3125 6.5 C2.50425781 5.8503125 1.69601563 5.200625 0.86328125 4.53125 C0.24839844 4.0259375 -0.36648437 3.520625 -1 3 C-0.67 2.01 -0.34 1.02 0 0 Z " fill="#0C1910" transform="translate(216,207)"/>
<path d="M0 0 C0.66 0.33 1.32 0.66 2 1 C1.67 1.66 1.34 2.32 1 3 C1.66 3 2.32 3 3 3 C2.25 7.75 2.25 7.75 0 10 C-0.33 8.68 -0.66 7.36 -1 6 C-1.99 6.33 -2.98 6.66 -4 7 C-6.6875 6.5625 -6.6875 6.5625 -9 6 C-9 5.67 -9 5.34 -9 5 C-6.69 5 -4.38 5 -2 5 C-1.34 3.35 -0.68 1.7 0 0 Z " fill="#03130A" transform="translate(88,158)"/>
<path d="M0 0 C4.11965167 0.56890428 6.58940104 2.79133577 9.75 5.375 C11.22726563 6.56222656 11.22726563 6.56222656 12.734375 7.7734375 C13.48203125 8.50820313 14.2296875 9.24296875 15 10 C15 10.99 15 11.98 15 13 C14.01 12.13375 13.02 11.2675 12 10.375 C8.6242947 7.46871793 5.11264353 4.808192 1.50390625 2.19921875 C1.00761719 1.80347656 0.51132813 1.40773437 0 1 C0 0.67 0 0.34 0 0 Z " fill="#1B281A" transform="translate(173,49)"/>
<path d="M0 0 C1.32 0 2.64 0 4 0 C4 0.66 4 1.32 4 2 C3.34 2 2.68 2 2 2 C2.33 3.32 2.66 4.64 3 6 C1.5608866 5.71640113 0.12374482 5.42278601 -1.3125 5.125 C-2.11300781 4.96257812 -2.91351563 4.80015625 -3.73828125 4.6328125 C-6 4 -6 4 -9 2 C-6.94921875 1.77213542 -4.8984375 1.54427083 -2.84765625 1.31640625 C-0.98859771 1.18113386 -0.98859771 1.18113386 0 0 Z " fill="#E2CE9D" transform="translate(247,243)"/>
<path d="M0 0 C0.33 0 0.66 0 1 0 C1.05418326 2.08304538 1.09287551 4.16649768 1.125 6.25 C1.14820313 7.41015625 1.17140625 8.5703125 1.1953125 9.765625 C1.0103949 12.82786046 0.60823023 14.44202751 -1 17 C-1.66 16.67 -2.32 16.34 -3 16 C-2.152874 10.63486869 -1.08318169 5.3212615 0 0 Z " fill="#CDB17B" transform="translate(175,71)"/>
<path d="M0 0 C4.12751449 0.60698743 7.3321148 2.03810791 11 4 C10.01 5.485 10.01 5.485 9 7 C6.0625 6.1875 6.0625 6.1875 3 5 C2.67 4.01 2.34 3.02 2 2 C1.34 1.34 0.68 0.68 0 0 Z " fill="#18261A" transform="translate(153,48)"/>
<path d="M0 0 C0 0.66 0 1.32 0 2 C1.32 2.33 2.64 2.66 4 3 C2.375 4.125 2.375 4.125 0 5 C-3.25 4.125 -3.25 4.125 -6 3 C-6 2.01 -6 1.02 -6 0 C-3.50907189 -1.24546405 -2.58919267 -0.7767578 0 0 Z " fill="#E6D6A7" transform="translate(88,43)"/>
<path d="M0 0 C1.09570312 0.19464844 2.19140625 0.38929688 3.3203125 0.58984375 C4.16335938 0.74582031 5.00640625 0.90179688 5.875 1.0625 C2.54188525 2.8449918 -0.36980943 3.55042856 -4.125 4.0625 C-4.455 3.4025 -4.785 2.7425 -5.125 2.0625 C-6.115 1.4025 -7.105 0.7425 -8.125 0.0625 C-5.2144446 -1.3927777 -3.16650948 -0.57266661 0 0 Z " fill="#CCB37C" transform="translate(257.125,260.9375)"/>
<path d="M0 0 C1 1 2 2 3 3 C3.66 3.53625 4.32 4.0725 5 4.625 C7.85613641 8.01666199 8.80965133 11.7796729 10 16 C5.46321158 11.98170169 2.54222705 7.5063556 0 2 C0 1.34 0 0.68 0 0 Z " fill="#EBE7BD" transform="translate(239,198)"/>
<path d="M0 0 C1.98 0 3.96 0 6 0 C7.06775224 1.96466413 8.06553465 3.96855359 9 6 C8.67 6.66 8.34 7.32 8 8 C6.66372225 6.85760183 5.33104612 5.71098945 4 4.5625 C3.2575 3.92441406 2.515 3.28632813 1.75 2.62890625 C1.1725 2.09136719 0.595 1.55382812 0 1 C0 0.67 0 0.34 0 0 Z " fill="#00572D" transform="translate(282,214)"/>
<path d="M0 0 C0.66 0 1.32 0 2 0 C3.32 2.31 4.64 4.62 6 7 C4.35 7.33 2.7 7.66 1 8 C-1.125 3.375 -1.125 3.375 0 0 Z " fill="#EBD4A2" transform="translate(237,187)"/>
<path d="M0 0 C5.57142857 5.14285714 5.57142857 5.14285714 6 9 C5.443125 8.525625 4.88625 8.05125 4.3125 7.5625 C1.81653926 5.87604004 -0.0446237 5.41046893 -3 5 C-2.01 3.35 -1.02 1.7 0 0 Z " fill="#E1C78D" transform="translate(147,157)"/>
<path d="M0 0 C1.45606519 4.52092968 0.27032841 7.51648796 -1 12 C-4.00617269 8.99382731 -3.59585316 6.17618402 -4 2 C-3.67 2.66 -3.34 3.32 -3 4 C-2.34 3.67 -1.68 3.34 -1 3 C-0.67 2.01 -0.34 1.02 0 0 Z " fill="#E8D4A2" transform="translate(45,133)"/>
<path d="M0 0 C4.455 0.99 4.455 0.99 9 2 C9 2.66 9 3.32 9 4 C8.01 4 7.02 4 6 4 C6.66 5.32 7.32 6.64 8 8 C7.01 8.495 7.01 8.495 6 9 C4 6 2 3 0 0 Z " fill="#DFDDB3" transform="translate(147,38)"/>
<path d="M0 0 C1.65 0.33 3.3 0.66 5 1 C4.01 1.33 3.02 1.66 2 2 C2 3.32 2 4.64 2 6 C-0.9375 5.625 -0.9375 5.625 -4 5 C-4.33 4.34 -4.66 3.68 -5 3 C-3.35 2.34 -1.7 1.68 0 1 C0 0.67 0 0.34 0 0 Z " fill="#04180F" transform="translate(277,262)"/>
<path d="M0 0 C2.3431213 0.25561323 4.67843403 0.59270772 7 1 C7.33 1.66 7.66 2.32 8 3 C6.68 3 5.36 3 4 3 C4.33 4.32 4.66 5.64 5 7 C2.5 5.1875 2.5 5.1875 0 3 C0 2.01 0 1.02 0 0 Z " fill="#DCC28A" transform="translate(148,148)"/>
<path d="M0 0 C4.50802601 1.25805377 7.4912812 2.90407165 11 6 C10.67 6.66 10.34 7.32 10 8 C8.0625 7.1875 8.0625 7.1875 6 6 C5.67 5.01 5.34 4.02 5 3 C4.01 3.33 3.02 3.66 2 4 C1.34 2.68 0.68 1.36 0 0 Z " fill="#0D281B" transform="translate(137,144)"/>
<path d="M0 0 C-0.33 0.66 -0.66 1.32 -1 2 C-1.66 2 -2.32 2 -3 2 C-2.67 3.32 -2.34 4.64 -2 6 C-3.65 5.67 -5.3 5.34 -7 5 C-6.67 3.35 -6.34 1.7 -6 0 C-3 -1 -3 -1 0 0 Z " fill="#0E2A1B" transform="translate(285,264)"/>
<path d="M0 0 C5.44567686 1.02862785 10.11817117 2.24614784 15 5 C11.35879332 6.33256282 9.33123446 5.65840377 5.8125 4.1875 C4.93207031 3.83042969 4.05164063 3.47335938 3.14453125 3.10546875 C1 2 1 2 0 0 Z " fill="#E3DEB0" transform="translate(255,252)"/>
<path d="M0 0 C5.31027254 1.46032495 9.46330032 3.98320986 14 7 C12.02 7.99 12.02 7.99 10 9 C9.34 8.34 8.68 7.68 8 7 C7.195625 6.360625 6.39125 5.72125 5.5625 5.0625 C3.56327618 3.45336863 1.76249026 1.85525291 0 0 Z " fill="#E5CB90" transform="translate(147,200)"/>
<path d="M0 0 C3.42634831 1.1421161 3.96357826 1.9540851 6 4.8125 C6.7425 5.84310547 6.7425 5.84310547 7.5 6.89453125 C7.995 7.58933594 8.49 8.28414062 9 9 C9.99667465 10.33582088 10.99570107 11.66990172 12 13 C11.01 13 10.02 13 9 13 C7.29928977 11.05255461 5.80452995 9.15895676 4.3125 7.0625 C3.89677734 6.49853516 3.48105469 5.93457031 3.05273438 5.35351562 C0 1.16791102 0 1.16791102 0 0 Z " fill="#162115" transform="translate(171,197)"/>
<path d="M0 0 C-0.33 1.65 -0.66 3.3 -1 5 C-1.99 5 -2.98 5 -4 5 C-4.33 4.34 -4.66 3.68 -5 3 C-7.01669827 1.86649466 -7.01669827 1.86649466 -9 1 C-5.8035914 -0.06546953 -3.34252724 -0.07427838 0 0 Z " fill="#E3C589" transform="translate(108,194)"/>
<path d="M0 0 C0.66 0 1.32 0 2 0 C2 0.66 2 1.32 2 2 C3.0828125 2.37125 3.0828125 2.37125 4.1875 2.75 C7.24713266 4.10983674 9.4673738 5.82917754 12 8 C11.67 8.66 11.34 9.32 11 10 C7.04 7.36 3.08 4.72 -1 2 C-0.67 1.34 -0.34 0.68 0 0 Z " fill="#ECE5B7" transform="translate(128,86)"/>
<path d="M0 0 C1.14926266 0.95421808 2.29430541 1.91352045 3.4375 2.875 C4.07558594 3.40867188 4.71367187 3.94234375 5.37109375 4.4921875 C7 6 7 6 8 8 C4.7 7.01 1.4 6.02 -2 5 C-1.01 4.34 -0.02 3.68 1 3 C0.67 2.01 0.34 1.02 0 0 Z " fill="#F5EFC8" transform="translate(182,57)"/>
<path d="M0 0 C2.475 0.99 2.475 0.99 5 2 C5 2.99 5 3.98 5 5 C5.7734375 5.99 5.7734375 5.99 6.5625 7 C7.036875 7.66 7.51125 8.32 8 9 C7.67 9.99 7.34 10.98 7 12 C6.401875 11.071875 5.80375 10.14375 5.1875 9.1875 C3.2345415 6.11316856 3.2345415 6.11316856 1.25 4.3125 C0 3 0 3 0 0 Z " fill="#051309" transform="translate(170,57)"/>
<path d="M0 0 C2.64 0.33 5.28 0.66 8 1 C8 2.32 8 3.64 8 5 C5.125 4.75 5.125 4.75 2 4 C0.625 1.9375 0.625 1.9375 0 0 Z " fill="#00542B" transform="translate(351,253)"/>
<path d="M0 0 C0.33 0.66 0.66 1.32 1 2 C3.02463255 2.65213292 3.02463255 2.65213292 5 3 C5 4.98 5 6.96 5 9 C3.68 8.67 2.36 8.34 1 8 C1 7.01 1 6.02 1 5 C0.68911632 3.32900023 0.35919668 1.66128463 0 0 Z " fill="#CCB17B" transform="translate(226,211)"/>
<path d="M0 0 C0.99 0 1.98 0 3 0 C3 1.32 3 2.64 3 4 C3.66 4 4.32 4 5 4 C5 5.32 5 6.64 5 8 C4.01 8.33 3.02 8.66 2 9 C1.87625 8.360625 1.7525 7.72125 1.625 7.0625 C1.315625 6.0415625 1.315625 6.0415625 1 5 C0.34 4.67 -0.32 4.34 -1 4 C-0.67 2.68 -0.34 1.36 0 0 Z " fill="#0E2C1D" transform="translate(186,150)"/>
<path d="M0 0 C0.66 0.33 1.32 0.66 2 1 C2 2.32 2 3.64 2 5 C1.34 5 0.68 5 0 5 C-0.33 5.99 -0.66 6.98 -1 8 C-1.66 7.67 -2.32 7.34 -3 7 C-2.625 4.0625 -2.625 4.0625 -2 1 C-1.34 0.67 -0.68 0.34 0 0 Z " fill="#EBDAAC" transform="translate(74,48)"/>
<path d="M0 0 C0.99 0.66 1.98 1.32 3 2 C2.01 3.485 2.01 3.485 1 5 C0.34 5 -0.32 5 -1 5 C-2.33783393 5.31478446 -3.67203709 5.64587656 -5 6 C-4.1875 3.5625 -4.1875 3.5625 -3 1 C-2.01 0.67 -1.02 0.34 0 0 Z " fill="#CEB37C" transform="translate(215,241)"/>
<path d="M0 0 C1.98 0.99 1.98 0.99 4 2 C4 2.66 4 3.32 4 4 C4.9590625 4.433125 4.9590625 4.433125 5.9375 4.875 C8 6 8 6 9 8 C8.34 8.66 7.68 9.32 7 10 C6.7525 9.21625 6.505 8.4325 6.25 7.625 C4.80505715 4.59062001 3.94434181 4.32970275 1 3 C0.67 2.01 0.34 1.02 0 0 Z " fill="#D5D2A9" transform="translate(260,212)"/>
<path d="M0 0 C0.66 0.33 1.32 0.66 2 1 C1.01 1.33 0.02 1.66 -1 2 C-1 2.66 -1 3.32 -1 4 C-1.99 4.66 -2.98 5.32 -4 6 C-4.66 6.99 -5.32 7.98 -6 9 C-6 7.02 -6 5.04 -6 3 C-4.03533587 1.93224776 -2.03144641 0.93446535 0 0 Z " fill="#F2E9BD" transform="translate(158,108)"/>
<path d="M0 0 C-0.33 1.65 -0.66 3.3 -1 5 C-3.4375 4.1875 -3.4375 4.1875 -6 3 C-6.33 2.01 -6.66 1.02 -7 0 C-3.98968256 -0.93423645 -3.13349732 -1.04449911 0 0 Z " fill="#132D1E" transform="translate(69,61)"/>
<path d="M0 0 C2 1 2 1 2 1 Z M-3 1 C-2.01 1 -1.02 1 0 1 C0 1.66 0 2.32 0 3 C1.32 3.33 2.64 3.66 4 4 C-0.625 6.125 -0.625 6.125 -4 5 C-4 2 -4 2 -3 1 Z " fill="#D9C695" transform="translate(336,269)"/>
<path d="M0 0 C1.98 0.66 3.96 1.32 6 2 C5.67 3.32 5.34 4.64 5 6 C2.58533087 4.79266543 0.30884631 3.39745961 -2 2 C-1.34 1.34 -0.68 0.68 0 0 Z " fill="#D0B57D" transform="translate(242,256)"/>
<path d="M0 0 C3.65316671 1.24976756 4.78065836 1.67098753 7 5 C4.36 5.66 1.72 6.32 -1 7 C-0.67 6.01 -0.34 5.02 0 4 C0.66 3.67 1.32 3.34 2 3 C1.34 2.01 0.68 1.02 0 0 Z " fill="#E5D3A3" transform="translate(259,232)"/>
<path d="M0 0 C1.32 1.32 2.64 2.64 4 4 C3.01 6.31 2.02 8.62 1 11 C0.67 11 0.34 11 0 11 C0 7.37 0 3.74 0 0 Z " fill="#D1B17A" transform="translate(188,116)"/>
<path d="M0 0 C0.33 0.66 0.66 1.32 1 2 C1.99 2.33 2.98 2.66 4 3 C2.71349294 3.69710731 1.42059335 4.38242876 0.125 5.0625 C-0.95394531 5.63677734 -0.95394531 5.63677734 -2.0546875 6.22265625 C-2.69664063 6.47917969 -3.33859375 6.73570313 -4 7 C-4.66 6.67 -5.32 6.34 -6 6 C-4.02 4.02 -2.04 2.04 0 0 Z " fill="#F1EFC3" transform="translate(63,57)"/>
<path d="M0 0 C2.00720923 0.28674418 4.0085944 0.61866701 6 1 C6.33 2.32 6.66 3.64 7 5 C4.125 4.6875 4.125 4.6875 1 4 C0.34 3.01 -0.32 2.02 -1 1 C-0.67 0.67 -0.34 0.34 0 0 Z " fill="#CEBC84" transform="translate(270,266)"/>
<path d="M0 0 C0.33 0.66 0.66 1.32 1 2 C-0.4375 4.625 -0.4375 4.625 -2 7 C-2.99 6.34 -3.98 5.68 -5 5 C-4 2 -4 2 -1.9375 0.8125 C-1.298125 0.544375 -0.65875 0.27625 0 0 Z " fill="#DDC58B" transform="translate(92,149)"/>
<path d="M0 0 C5.75 0.75 5.75 0.75 8 3 C5.35261084 4.4606285 4.10551666 5 1 5 C0.67 3.35 0.34 1.7 0 0 Z " fill="#D1B47D" transform="translate(59,149)"/>
<path d="M0 0 C-2.95183101 2.95183101 -5.95511947 3.08663988 -10 4 C-9.67 3.01 -9.34 2.02 -9 1 C-3.79245283 -1.26415094 -3.79245283 -1.26415094 0 0 Z " fill="#D2B57E" transform="translate(95,148)"/>
<path d="M0 0 C0.99 0.33 1.98 0.66 3 1 C2.34 3.97 1.68 6.94 1 10 C-1.56687367 6.1496895 -0.83288724 4.41430237 0 0 Z " fill="#DED0A2" transform="translate(151,114)"/>
<path d="M0 0 C1.32 0.66 2.64 1.32 4 2 C3.01 2 2.02 2 1 2 C1 3.65 1 5.3 1 7 C-1.51083114 5.74458443 -1.87125446 4.49936512 -3 2 C-2.01 1.34 -1.02 0.68 0 0 Z " fill="#0C2B1C" transform="translate(271,259)"/>
<path d="M0 0 C1.46015291 0.28241641 2.91809793 0.57626614 4.375 0.875 C5.18710937 1.03742188 5.99921875 1.19984375 6.8359375 1.3671875 C9 2 9 2 11 4 C8.69 4 6.38 4 4 4 C4 3.34 4 2.68 4 2 C2.68 1.34 1.36 0.68 0 0 Z " fill="#F3E4AE" transform="translate(341,266)"/>
<path d="M0 0 C3 2 3 2 5 5 C3.35 5 1.7 5 0 5 C-0.66 3.68 -1.32 2.36 -2 1 C-1.34 0.67 -0.68 0.34 0 0 Z " fill="#E1CB9B" transform="translate(279,244)"/>
<path d="M0 0 C-0.8125 2.4375 -0.8125 2.4375 -2 5 C-2.99 5.33 -3.98 5.66 -5 6 C-5.33 5.01 -5.66 4.02 -6 3 C-3.89377581 0.89377581 -2.98199855 0 0 0 Z " fill="#0B2C1D" transform="translate(101,143)"/>
<path d="M0 0 C0.99 0.99 1.98 1.98 3 3 C2.67 3.99 2.34 4.98 2 6 C1.34 6 0.68 6 0 6 C-0.66 6.66 -1.32 7.32 -2 8 C-1.47731534 5.23723823 -0.89130413 2.6739124 0 0 Z " fill="#D9BA84" transform="translate(191,120)"/>
<path d="M0 0 C2.97 0.99 5.94 1.98 9 3 C8.67 3.66 8.34 4.32 8 5 C4.33776842 4.50510384 2.33006074 3.94323463 0 1 C0 0.67 0 0.34 0 0 Z " fill="#EFE7BA" transform="translate(79,106)"/>
<path d="M0 0 C1.32 0 2.64 0 4 0 C3.375 1.9375 3.375 1.9375 2 4 C-1.125 4.75 -1.125 4.75 -4 5 C-2.25 2.5 -2.25 2.5 0 0 Z " fill="#172D1E" transform="translate(99,36)"/>
<path d="M0 0 C2.31 0.33 4.62 0.66 7 1 C7 1.66 7 2.32 7 3 C5.68 3 4.36 3 3 3 C2.67 3.66 2.34 4.32 2 5 C1.34 3.35 0.68 1.7 0 0 Z " fill="#0D2316" transform="translate(244,262)"/>
<path d="M0 0 C1.65 0 3.3 0 5 0 C5.66 1.32 6.32 2.64 7 4 C4.625 3.6875 4.625 3.6875 2 3 C1.34 2.01 0.68 1.02 0 0 Z " fill="#04140C" transform="translate(259,230)"/>
<path d="M0 0 C1.875 0.125 1.875 0.125 4 1 C5.38150201 4.17745463 6 6.53122824 6 10 C3.26299307 7.63622129 2.21260684 5.37797619 1 2 C0.67 1.34 0.34 0.68 0 0 Z " fill="#E1C48C" transform="translate(213,199)"/>
<path d="M0 0 C0.66 0.33 1.32 0.66 2 1 C1.67 2.65 1.34 4.3 1 6 C-0.32 6.33 -1.64 6.66 -3 7 C-1.125 1.125 -1.125 1.125 0 0 Z " fill="#EDE1B3" transform="translate(100,148)"/>
<path d="M0 0 C0 2.97 0 5.94 0 9 C-0.99 8.34 -1.98 7.68 -3 7 C-3.1875 3.875 -3.1875 3.875 -3 1 C-1 0 -1 0 0 0 Z " fill="#0E2C1C" transform="translate(47,121)"/>
<path d="M0 0 C0.66 1.32 1.32 2.64 2 4 C1.01 4.66 0.02 5.32 -1 6 C-1.66 4.68 -2.32 3.36 -3 2 C-2.01 1.34 -1.02 0.68 0 0 Z " fill="#0F271B" transform="translate(215,204)"/>
<path d="M0 0 C2 3 2 3 1.75 5 C1 7 1 7 -1 10 C-1.125 2.25 -1.125 2.25 0 0 Z " fill="#E3D3A2" transform="translate(40,117)"/>
</svg>
